<svg width="43" height="49" viewBox="0 0 43 49" fill="none" xmlns="http://www.w3.org/2000/svg">
<path d="M14.3677 11.5322H28.6322C31.2208 9.15324 32.8799 5.51135 32.8799 1.43555C32.8799 0.642742 32.3158 0 31.6201 0H11.3799C10.6842 0 10.1201 0.642742 10.1201 1.43555C10.1201 5.51135 11.7792 9.15324 14.3677 11.5322Z" fill="#153243"/>
<path d="M31.4163 14.2986C31.2707 14.3655 31.1121 14.4033 30.9455 14.4033H24.5413L28.4628 18.8719C28.9548 19.4326 28.9548 20.3415 28.4628 20.9021C27.9708 21.4628 27.1731 21.4626 26.6812 20.9021L21.5 14.9979L16.3188 20.9021C15.8269 21.4627 15.0292 21.4627 14.5372 20.9021C14.0452 20.3415 14.0452 19.4326 14.5372 18.8719L18.4587 14.4033H12.0545C11.8879 14.4033 11.7293 14.3656 11.5837 14.2986C4.70606 18.3898 0 26.5961 0 36.0322C0 43.1826 5.10499 49 11.3799 49H31.6201C37.895 49 43 43.1826 43 36.0322C43 26.5961 38.2939 18.3898 31.4163 14.2986ZM22.7598 38.7698V39.1074C22.6978 41.0101 20.3016 41.0087 20.2402 39.1074V38.7719C19.6665 38.5531 19.1405 38.1852 18.7005 37.6833C18.2088 37.1223 18.2092 36.2134 18.7015 35.6531C19.1938 35.0929 19.9913 35.0933 20.483 35.6543C21.2898 36.5976 22.735 36.0587 22.9172 34.779C22.5401 34.5065 21.6481 34.1518 21.085 33.928C19.5219 33.3065 17.5416 32.5663 17.5416 30.6504C17.5416 28.6651 18.6735 26.9763 20.2402 26.3752V26.0375C20.3022 24.1349 22.6984 24.1363 22.7598 26.0375V26.3731C23.3335 26.5918 23.8595 26.9597 24.2995 27.4617C24.7912 28.0226 24.7908 28.9316 24.2985 29.4918C23.8062 30.0521 23.0087 30.0516 22.517 29.4907C21.7102 28.5473 20.265 29.0862 20.0828 30.366C20.4599 30.6385 21.3519 30.9931 21.915 31.217C23.4781 31.8385 25.4584 32.5786 25.4584 34.4945C25.4584 36.48 24.3265 38.1687 22.7598 38.7698Z" fill="#153243"/>
</svg>
