<svg width="21" height="18" viewBox="0 0 21 18" fill="none" xmlns="http://www.w3.org/2000/svg">
<path d="M1.53989 1.24331L2.24989 0.535156L18.9999 17.2417L18.2899 17.9498L14.9499 14.6085C13.5799 15.177 12.0799 15.4962 10.4999 15.4962C5.93989 15.4962 1.99989 12.8531 0.139893 9.01308C1.10989 7.01827 2.62989 5.35261 4.49989 4.2056L1.53989 1.24331ZM10.4999 14.4988C11.7899 14.4988 13.0299 14.2694 14.1699 13.8405L13.0499 12.7134C12.3199 13.2121 11.4499 13.5014 10.4999 13.5014C7.99989 13.5014 5.99989 11.5066 5.99989 9.01308C5.99989 8.06555 6.28989 7.19781 6.78989 6.4697L5.23989 4.9337C3.56554 5.90664 2.18937 7.31717 1.25989 9.01308C3.03989 12.2846 6.49989 14.4988 10.4999 14.4988ZM19.7399 9.01308C17.9599 5.7416 14.4999 3.52736 10.4999 3.52736C9.34989 3.52736 8.22989 3.71687 7.18989 4.05599L6.40989 3.27801C7.67989 2.78929 9.05989 2.52996 10.4999 2.52996C15.0599 2.52996 18.9999 5.17308 20.8599 9.01308C19.9511 10.894 18.5436 12.491 16.7899 13.6311L16.0699 12.9029C17.5999 11.9454 18.8699 10.6089 19.7399 9.01308ZM10.4999 4.52477C12.9999 4.52477 14.9999 6.51957 14.9999 9.01308C14.9999 9.83095 14.7799 10.589 14.3999 11.2473L13.6599 10.5092C13.8799 10.0504 13.9999 9.55168 13.9999 9.01308C13.9999 8.08723 13.6311 7.19931 12.9748 6.54463C12.3184 5.88996 11.4282 5.52217 10.4999 5.52217C9.95989 5.52217 9.45989 5.64186 8.99989 5.86129L8.25989 5.12321C8.91989 4.7442 9.67989 4.52477 10.4999 4.52477ZM6.99989 9.01308C6.99989 9.93893 7.36864 10.8269 8.02502 11.4815C8.6814 12.1362 9.57163 12.504 10.4999 12.504C11.1699 12.504 11.7899 12.3145 12.3199 12.0053L7.49989 7.19781C7.18989 7.72643 6.99989 8.34482 6.99989 9.01308Z" fill="#49454F"/>
</svg>
