<svg width="21" height="14" viewBox="0 0 21 14" fill="none" xmlns="http://www.w3.org/2000/svg">
<path d="M10.4999 12.7064C14.4999 12.7064 17.9599 10.4921 19.7399 7.22067C17.9599 3.94919 14.4999 1.73495 10.4999 1.73495C6.49989 1.73495 3.03989 3.94919 1.25989 7.22067C3.03989 10.4921 6.49989 12.7064 10.4999 12.7064ZM10.4999 0.737549C15.0599 0.737549 18.9999 3.38067 20.8599 7.22067C18.9999 11.0607 15.0599 13.7038 10.4999 13.7038C5.93989 13.7038 1.99989 11.0607 0.139893 7.22067C1.99989 3.38067 5.93989 0.737549 10.4999 0.737549ZM10.4999 2.73235C12.9999 2.73235 14.9999 4.72716 14.9999 7.22067C14.9999 9.71417 12.9999 11.709 10.4999 11.709C7.99989 11.709 5.99989 9.71417 5.99989 7.22067C5.99989 4.72716 7.99989 2.73235 10.4999 2.73235ZM10.4999 3.72976C9.57163 3.72976 8.6814 4.09755 8.02502 4.75222C7.36864 5.40689 6.99989 6.29482 6.99989 7.22067C6.99989 8.14651 7.36864 9.03444 8.02502 9.68911C8.6814 10.3438 9.57163 10.7116 10.4999 10.7116C11.4282 10.7116 12.3184 10.3438 12.9748 9.68911C13.6311 9.03444 13.9999 8.14651 13.9999 7.22067C13.9999 6.29482 13.6311 5.40689 12.9748 4.75222C12.3184 4.09755 11.4282 3.72976 10.4999 3.72976Z" fill="#49454F"/>
</svg>
