<svg width="8" height="14" viewBox="0 0 8 14" fill="none" xmlns="http://www.w3.org/2000/svg">
<path d="M5.82214 2.31H7.66071C7.82986 2.31 7.96714 2.18064 7.96714 2.02125V0.28875C7.96714 0.12936 7.82986 0 7.66071 0H5.82214C3.96396 0 2.45143 1.42469 2.45143 3.17625V5.1975H0.306429C0.13728 5.1975 0 5.32686 0 5.48625V7.21875C0 7.37814 0.13728 7.5075 0.306429 7.5075H2.45143V13.5712C2.45143 13.7306 2.58871 13.86 2.75786 13.86H4.59643C4.76558 13.86 4.90286 13.7306 4.90286 13.5712V7.5075H7.04786C7.17962 7.5075 7.29668 7.42781 7.33896 7.31L7.95182 5.5775C7.98308 5.48972 7.96714 5.39269 7.90953 5.31704C7.85131 5.24197 7.75938 5.1975 7.66071 5.1975H4.90286V3.17625C4.90286 2.69866 5.31531 2.31 5.82214 2.31Z" fill="#49454F"/>
</svg>
