<svg width="32" height="30" viewBox="0 0 32 30" fill="none" xmlns="http://www.w3.org/2000/svg">
<rect x="1" y="1" width="30" height="28" rx="5" fill="#F4F5F1" stroke="#153243"/>
<path d="M18.8221 10.31H20.6607C20.8299 10.31 20.9671 10.1806 20.9671 10.0213V8.28875C20.9671 8.12936 20.8299 8 20.6607 8H18.8221C16.964 8 15.4514 9.42469 15.4514 11.1763V13.1975H13.3064C13.1373 13.1975 13 13.3269 13 13.4862V15.2188C13 15.3781 13.1373 15.5075 13.3064 15.5075H15.4514V21.5712C15.4514 21.7306 15.5887 21.86 15.7579 21.86H17.5964C17.7656 21.86 17.9029 21.7306 17.9029 21.5712V15.5075H20.0479C20.1796 15.5075 20.2967 15.4278 20.339 15.31L20.9518 13.5775C20.9831 13.4897 20.9671 13.3927 20.9095 13.317C20.8513 13.242 20.7594 13.1975 20.6607 13.1975H17.9029V11.1763C17.9029 10.6987 18.3153 10.31 18.8221 10.31Z" fill="#49454F"/>
</svg>
