<svg width="40" height="40" viewBox="0 0 40 40" fill="none" xmlns="http://www.w3.org/2000/svg">
<path d="M38.6545 38.8699C39.0091 39.2119 38.7075 39.8064 38.222 39.7223L0.689574 33.2229C0.351573 33.1644 0.169688 32.7962 0.337658 32.4971C1.90408 29.7079 8.57183 18.0995 12.9477 14.6315C13.1367 14.4817 13.4014 14.5058 13.5749 14.6732L38.6545 38.8699Z" fill="#153243"/>
<path d="M39.6618 37.9209C39.7603 38.4114 39.1569 38.7264 38.8107 38.3652L15.0299 13.5581C14.8405 13.3606 14.8451 13.0497 15.0461 12.864C16.6315 11.4002 23.331 5.551 32.0379 2.72798C32.3193 2.63673 32.6163 2.81308 32.6745 3.10315L39.6618 37.9209Z" fill="#153243"/>
<path d="M0.997345 30.6522C0.775849 31.1544 0 30.9996 0 30.4508V2.80313C0 2.36048 0.532788 2.13615 0.849413 2.44548L11.4961 12.8471C11.6958 13.0422 11.7029 13.3604 11.5139 13.5659C10.2139 14.9791 5.46133 20.5323 0.997345 30.6522Z" fill="#153243"/>
<path d="M3.29487 0.00857852C2.8546 0.00535399 2.62539 0.531613 2.92762 0.851785L12.7251 11.2309C12.9258 11.4435 13.2626 11.4449 13.4649 11.2338C14.8329 9.80591 19.9181 4.77786 26.9234 1.19903C27.4032 0.953909 27.2369 0.183926 26.6981 0.17998L3.29487 0.00857852Z" fill="#FFBA08"/>
</svg>
