<svg width="15" height="15" viewBox="0 0 15 15" fill="none" xmlns="http://www.w3.org/2000/svg">
<path d="M7.50159 14.6574C5.55409 14.6574 5.3245 14.6471 4.5645 14.6139C3.97184 14.5944 3.38684 14.4739 2.83471 14.2576C2.36223 14.0737 1.93315 13.7936 1.57471 13.4351C1.21628 13.0765 0.936322 12.6473 0.752629 12.1747C0.544663 11.6206 0.432493 11.0351 0.42092 10.4434C0.376587 9.68495 0.376587 9.43637 0.376587 7.50391C0.376587 5.55087 0.386879 5.32287 0.42092 4.56682C0.432746 3.97586 0.544912 3.3912 0.752629 2.83782C0.936111 2.36467 1.21625 1.93499 1.57517 1.57621C1.93408 1.21744 2.36387 0.937459 2.83709 0.754156C3.39018 0.545316 3.97499 0.432854 4.56609 0.421656C5.32213 0.378906 5.57071 0.378906 7.50159 0.378906C9.46492 0.378906 9.69055 0.389198 10.4387 0.421656C11.0308 0.43274 11.6183 0.545156 12.1724 0.754156C12.6455 0.937671 13.0752 1.21773 13.4341 1.57647C13.793 1.93522 14.0732 2.3648 14.2569 2.83782C14.4683 3.39991 14.5815 3.99366 14.5902 4.59295C14.6345 5.35137 14.6345 5.59916 14.6345 7.53082C14.6345 9.46249 14.6234 9.71582 14.5902 10.4655C14.5783 11.0579 14.4659 11.6439 14.2577 12.1985C14.0735 12.6714 13.793 13.1008 13.4341 13.4595C13.0751 13.8182 12.6454 14.0984 12.1724 14.2822C11.6183 14.4896 11.0332 14.602 10.4418 14.6139C9.6858 14.6574 9.438 14.6574 7.50159 14.6574ZM7.47467 1.63211C5.53825 1.63211 5.33717 1.64161 4.58113 1.67566C4.1296 1.68156 3.68243 1.76484 3.25905 1.92186C2.95024 2.04023 2.66967 2.22199 2.43541 2.45543C2.20115 2.68887 2.01841 2.96881 1.89896 3.2772C1.74063 3.7047 1.6575 4.15674 1.65275 4.61274C1.6108 5.37986 1.6108 5.58095 1.6108 7.50391C1.6108 9.40391 1.61792 9.63428 1.65275 10.3967C1.65988 10.8479 1.743 11.2952 1.89896 11.7187C2.14121 12.3418 2.63521 12.8342 3.25984 13.0733C3.68267 13.2313 4.12976 13.3146 4.58113 13.3195C5.34746 13.3638 5.54934 13.3638 7.47467 13.3638C9.41663 13.3638 9.61771 13.3543 10.3674 13.3195C10.819 13.314 11.2662 13.2307 11.6895 13.0733C11.9967 12.954 12.2756 12.7721 12.5087 12.5392C12.7418 12.3063 12.9238 12.0274 13.0433 11.7203C13.2016 11.2928 13.2847 10.84 13.2895 10.384H13.2982C13.3322 9.62716 13.3322 9.42528 13.3322 7.49124C13.3322 5.5572 13.3235 5.35374 13.2895 4.5977C13.2823 4.14681 13.1991 3.70037 13.0433 3.2772C12.9241 2.96967 12.7422 2.69034 12.5091 2.45699C12.276 2.22364 11.9969 2.0414 11.6895 1.92186C11.2663 1.76407 10.819 1.68077 10.3674 1.67566C9.60188 1.63211 9.40159 1.63211 7.47467 1.63211ZM7.50159 11.1606C6.77767 11.1611 6.06986 10.9469 5.46771 10.545C4.86555 10.1432 4.39608 9.57181 4.11869 8.90314C3.84129 8.23448 3.76843 7.49856 3.90931 6.78848C4.0502 6.0784 4.3985 5.42605 4.91017 4.91394C5.42184 4.40183 6.07389 4.05296 6.78385 3.91146C7.49381 3.76996 8.22978 3.84219 8.89869 4.119C9.5676 4.39582 10.1394 4.86479 10.5417 5.4666C10.9441 6.06841 11.1589 6.77603 11.1591 7.49995C11.1578 8.46988 10.7722 9.39978 10.0866 10.0859C9.40108 10.7721 8.47152 11.1585 7.50159 11.1606ZM7.50159 5.12336C7.03186 5.12336 6.57267 5.26266 6.18211 5.52362C5.79154 5.78459 5.48713 6.15552 5.30737 6.58949C5.12761 7.02347 5.08058 7.501 5.17222 7.9617C5.26386 8.42241 5.49006 8.84559 5.82221 9.17774C6.15436 9.50989 6.57754 9.73609 7.03825 9.82773C7.49895 9.91937 7.97649 9.87234 8.41046 9.69258C8.84444 9.51282 9.21536 9.20841 9.47633 8.81785C9.7373 8.42728 9.87659 7.9681 9.87659 7.49837C9.87512 6.86893 9.62443 6.26569 9.17935 5.8206C8.73427 5.37552 8.13103 5.12483 7.50159 5.12336ZM11.3016 4.55891C11.1895 4.55849 11.0786 4.536 10.9752 4.49273C10.8719 4.44946 10.778 4.38625 10.6991 4.30671C10.5396 4.14607 10.4505 3.92866 10.4513 3.70232C10.4522 3.47598 10.5429 3.25925 10.7035 3.09979C10.8642 2.94034 11.0816 2.85123 11.3079 2.85207C11.5343 2.85291 11.751 2.94363 11.9104 3.10427C12.0699 3.26491 12.159 3.48232 12.1582 3.70866C12.1573 3.935 12.0666 4.15173 11.906 4.31119C11.7453 4.47064 11.5279 4.55975 11.3016 4.55891Z" fill="#49454F"/>
</svg>
