<svg width="32" height="30" viewBox="0 0 32 30" fill="none" xmlns="http://www.w3.org/2000/svg">
<rect x="1" y="1" width="30" height="28" rx="5" fill="#F4F5F1" stroke="#153243"/>
<path d="M12.4837 10.9671C13.303 10.9671 13.9672 10.3029 13.9672 9.48355C13.9672 8.66421 13.303 8 12.4837 8C11.6643 8 11.0001 8.66421 11.0001 9.48355C11.0001 10.3029 11.6643 10.9671 12.4837 10.9671Z" fill="#49454F"/>
<path d="M13.7198 11.958H11.2473C11.1108 11.958 11 12.0688 11 12.2053V19.623C11 19.7595 11.1108 19.8703 11.2473 19.8703H13.7198C13.8563 19.8703 13.9671 19.7595 13.9671 19.623V12.2053C13.9671 12.0688 13.8563 11.958 13.7198 11.958Z" fill="#49454F"/>
<path d="M21.088 11.5466C20.0313 11.1847 18.7094 11.5026 17.9167 12.0728C17.8895 11.9665 17.7926 11.8874 17.6774 11.8874H15.2048C15.0683 11.8874 14.9575 11.9981 14.9575 12.1346V19.5524C14.9575 19.6889 15.0683 19.7996 15.2048 19.7996H17.6774C17.8138 19.7996 17.9246 19.6889 17.9246 19.5524V14.2215C18.3242 13.8773 18.839 13.7675 19.2603 13.9465C19.6688 14.1191 19.9027 14.5404 19.9027 15.1017V19.5524C19.9027 19.6889 20.0135 19.7996 20.1499 19.7996H22.6225C22.759 19.7996 22.8698 19.6889 22.8698 19.5524V14.6037C22.8416 12.5718 21.8857 11.8196 21.088 11.5466Z" fill="#49454F"/>
</svg>
