<svg width="16" height="22" viewBox="0 0 16 22" fill="none" xmlns="http://www.w3.org/2000/svg">
<path d="M8 16.7116C7.46957 16.7116 6.96086 16.5014 6.58579 16.1273C6.21071 15.7533 6 15.2459 6 14.7168C6 13.6097 6.89 12.722 8 12.722C8.53043 12.722 9.03914 12.9322 9.41421 13.3063C9.78929 13.6804 10 14.1878 10 14.7168C10 15.2459 9.78929 15.7533 9.41421 16.1273C9.03914 16.5014 8.53043 16.7116 8 16.7116ZM14 19.7038V9.7298H2V19.7038H14ZM14 7.73499C14.5304 7.73499 15.0391 7.94516 15.4142 8.31926C15.7893 8.69336 16 9.20074 16 9.7298V19.7038C16 20.2329 15.7893 20.7403 15.4142 21.1144C15.0391 21.4885 14.5304 21.6986 14 21.6986H2C1.46957 21.6986 0.960859 21.4885 0.585786 21.1144C0.210714 20.7403 0 20.2329 0 19.7038V9.7298C0 8.62268 0.89 7.73499 2 7.73499H3V5.74019C3 4.41755 3.52678 3.14908 4.46447 2.21384C5.40215 1.27859 6.67392 0.753174 8 0.753174C8.65661 0.753174 9.30679 0.882167 9.91342 1.13279C10.52 1.38341 11.0712 1.75075 11.5355 2.21384C11.9998 2.67692 12.3681 3.22669 12.6194 3.83174C12.8707 4.43679 13 5.08528 13 5.74019V7.73499H14ZM8 2.74798C7.20435 2.74798 6.44129 3.06323 5.87868 3.62438C5.31607 4.18552 5 4.9466 5 5.74019V7.73499H11V5.74019C11 4.9466 10.6839 4.18552 10.1213 3.62438C9.55871 3.06323 8.79565 2.74798 8 2.74798Z" fill="#49454F"/>
</svg>
