<svg width="47" height="41" viewBox="0 0 47 41" fill="none" xmlns="http://www.w3.org/2000/svg">
<path d="M23.5 16.1609C27.9107 16.1609 31.4863 12.7374 31.4863 8.5144C31.4863 4.29137 27.9107 0.86792 23.5 0.86792C19.0893 0.86792 15.5137 4.29137 15.5137 8.5144C15.5137 12.7374 19.0893 16.1609 23.5 16.1609Z" fill="#1C1B1F"/>
<path d="M39.6562 16.1609C42.4446 16.1609 44.7051 13.9966 44.7051 11.3269C44.7051 8.65717 42.4446 6.49292 39.6562 6.49292C36.8679 6.49292 34.6074 8.65717 34.6074 11.3269C34.6074 13.9966 36.8679 16.1609 39.6562 16.1609Z" fill="#1C1B1F"/>
<path d="M7.34375 16.1609C10.1321 16.1609 12.3926 13.9966 12.3926 11.3269C12.3926 8.65717 10.1321 6.49292 7.34375 6.49292C4.55536 6.49292 2.29492 8.65717 2.29492 11.3269C2.29492 13.9966 4.55536 16.1609 7.34375 16.1609Z" fill="#1C1B1F"/>
<path d="M12.3182 20.5018C10.3308 18.9428 8.53096 19.1492 6.23301 19.1492C2.79613 19.1492 0 21.8105 0 25.0809V34.6795C0 36.0998 1.2108 37.2547 2.69974 37.2547C9.12791 37.2547 8.35351 37.366 8.35351 36.9892C8.35351 30.1877 7.5121 25.1998 12.3182 20.5018Z" fill="#1C1B1F"/>
<path d="M25.6857 19.1843C21.672 18.8637 18.1832 19.188 15.174 21.5661C10.1383 25.428 11.1074 30.6279 11.1074 36.9892C11.1074 38.6722 12.5376 40.0671 14.3222 40.0671C33.6988 40.0671 34.47 40.6655 35.619 38.2293C35.9959 37.4054 35.8926 37.6672 35.8926 29.7856C35.8926 23.5255 30.2312 19.1843 25.6857 19.1843Z" fill="#1C1B1F"/>
<path d="M40.767 19.1492C38.4564 19.1492 36.6665 18.9449 34.6818 20.5018C39.452 25.165 38.6465 29.8125 38.6465 36.9892C38.6465 37.3684 38.0036 37.2547 44.2038 37.2547C45.746 37.2547 47 36.0585 47 34.5881V25.0809C47 21.8105 44.2038 19.1492 40.767 19.1492Z" fill="#1C1B1F"/>
</svg>
