<svg width="80" height="80" viewBox="0 0 80 80" fill="none" xmlns="http://www.w3.org/2000/svg">
<g clip-path="url(#clip0_676_5764)">
<path d="M72.9797 33.2153L41.7784 2.0095C39.9382 0.173876 36.9615 0.195595 35.1454 2.00716C33.319 3.83826 33.319 6.81139 35.1454 8.64014L66.3512 39.8438C68.1794 41.6719 71.1514 41.6719 72.9797 39.8438C74.8128 38.0106 74.8128 35.0481 72.9797 33.2153Z" fill="#153243"/>
<path d="M32.8305 12.954L32.5957 14.1312C30.9415 22.4059 26.9211 30.267 21.4835 36.6384L38.4596 53.6145C44.8302 48.178 52.5831 44.0497 60.8581 42.3934L62.0375 42.1586L32.8305 12.954Z" fill="#153243"/>
<path d="M18.3711 40.1545L6.76908 51.7542C4.02767 54.4957 4.01626 58.9463 6.76908 61.6991L13.3975 68.3276C16.1389 71.069 20.5896 71.0802 23.3424 68.3276L34.9433 56.7266L18.3711 40.1545ZM20.0283 58.385C19.1128 59.3005 17.6296 59.3005 16.7141 58.385C15.7986 57.4696 15.7986 55.9863 16.7141 55.0708L20.0283 51.7566C20.9438 50.8411 22.4271 50.8411 23.3425 51.7566C24.258 52.6721 24.258 54.1553 23.3425 55.0708L20.0283 58.385Z" fill="#153243"/>
<path d="M44.7291 69.5749L47.9174 66.3866C50.6704 63.6341 50.6613 59.1835 47.9176 56.4443L45.5494 54.0744C44.2405 54.9536 42.9905 55.9089 41.7752 56.9283L44.6034 59.7607C45.5166 60.6693 45.523 62.148 44.6034 63.0725L41.3624 66.3135L36.5996 61.699L29.9708 68.3277L40.6048 78.632C42.4194 80.4513 45.399 80.4617 47.2309 78.6296C49.0596 76.8009 49.0596 73.8277 47.2309 71.9988L44.7291 69.5749Z" fill="#153243"/>
<path d="M54.1976 0C52.9022 0 51.8539 1.04828 51.8539 2.34376V7.03127C51.8539 8.32674 52.9022 9.37502 54.1976 9.37502C55.4931 9.37502 56.5414 8.32674 56.5414 7.03127V2.34376C56.5414 1.04828 55.4931 0 54.1976 0Z" fill="#153243"/>
<path d="M72.9477 18.75H68.2602C66.9647 18.75 65.9164 19.7983 65.9164 21.0938C65.9164 22.3892 66.9647 23.4375 68.2602 23.4375H72.9477C74.2432 23.4375 75.2915 22.3892 75.2915 21.0938C75.2915 19.7983 74.2432 18.75 72.9477 18.75Z" fill="#153243"/>
<path d="M69.9172 5.3741C69.0018 4.45863 67.5185 4.45863 66.603 5.3741L61.9155 10.0616C61 10.9771 61 12.4604 61.9155 13.3758C62.831 14.2913 64.3142 14.2915 65.2297 13.3758L69.9172 8.68833C70.8327 7.77286 70.8327 6.28957 69.9172 5.3741Z" fill="#153243"/>
</g>
<defs>
<clipPath id="clip0_676_5764">
<rect width="80" height="80" fill="white"/>
</clipPath>
</defs>
</svg>
