<svg width="48" height="48" viewBox="0 0 48 48" fill="none" xmlns="http://www.w3.org/2000/svg">
<path d="M24 0.561416C11.0651 0.561416 0.5625 11.064 0.5625 23.9989C0.5625 36.9338 11.0651 47.4364 24 47.4364C36.9349 47.4364 47.4375 36.9338 47.4375 23.9989C47.4375 20.4038 46.624 16.997 45.1746 13.9509L42.8477 16.2779C42.4083 16.7198 41.8091 16.969 41.186 16.9691H40.539C41.4599 19.1293 41.9703 21.5048 41.9703 23.9989C41.9703 33.9135 33.9146 41.9691 24 41.9691C14.0854 41.9691 6.02972 33.9135 6.02972 23.9989C6.02972 14.0843 14.0854 6.02854 24 6.02854C26.4946 6.02854 28.8707 6.53857 31.0313 7.45986V6.81286C31.0314 6.18971 31.2806 5.59062 31.7225 5.15122L34.0479 2.82428C31.0019 1.37489 27.5951 0.561416 24 0.561416ZM38.8224 0.561416C38.6224 0.567378 38.4324 0.64973 38.2914 0.791649L32.8242 6.25886C32.7512 6.33146 32.6932 6.41783 32.6537 6.51288C32.6141 6.60794 32.5938 6.70982 32.5938 6.81277V11.9596L22.2773 22.2761C21.3316 23.2218 21.3316 24.7804 22.2773 25.7261C23.223 26.6718 24.777 26.6672 25.7227 25.7201L36.0377 15.4052H41.186C41.2889 15.4052 41.3909 15.3849 41.4859 15.3454C41.581 15.3059 41.6673 15.248 41.7399 15.175L47.2071 9.70768C47.3159 9.59823 47.3898 9.45908 47.4196 9.30768C47.4493 9.15627 47.4336 8.99942 47.3744 8.85694C47.3151 8.71446 47.215 8.5927 47.0867 8.50704C46.9583 8.42138 46.8075 8.37563 46.6532 8.37557H43.0674L43.6899 7.75308C44.6357 6.80737 44.6402 5.25331 43.6947 4.3076C43.2218 3.83474 42.595 3.59807 41.9689 3.59807C41.3428 3.59807 40.7175 3.83486 40.2447 4.3076L39.6236 4.92864V1.33826C39.6232 1.23424 39.6021 1.13132 39.5614 1.03558C39.5207 0.939838 39.4613 0.85323 39.3867 0.780746C39.3121 0.708262 39.2237 0.65139 39.1269 0.6135C39.03 0.575611 38.9265 0.557433 38.8225 0.560064L38.8224 0.561416ZM24 11.4958C17.1057 11.4958 11.4969 17.1046 11.4969 23.9989C11.4969 30.8932 17.1057 36.4959 24 36.4959C30.8943 36.4959 36.4969 30.8932 36.4969 23.9989C36.4969 22.0099 36.0199 20.1341 35.1908 18.4629L30.9107 22.743C30.9848 23.1512 31.0297 23.5698 31.0297 23.9989C31.0297 27.8729 27.874 31.0286 24 31.0286C20.126 31.0286 16.9703 27.8729 16.9703 23.9989C16.9703 20.1249 20.126 16.9691 24 16.9691C24.4291 16.9691 24.8476 17.014 25.2558 17.0881L29.5374 12.8065C27.8661 11.9757 25.9903 11.4958 24 11.4958L24 11.4958Z" fill="#153243"/>
</svg>
