<svg width="48" height="48" viewBox="0 0 48 48" fill="none" xmlns="http://www.w3.org/2000/svg">
<g clip-path="url(#clip0_1374_5218)">
<path d="M14.38 14.9312H0V18.1436H17.5924L14.38 14.9312Z" fill="#153243"/>
<path d="M31.2729 18.1436H42.6573L33.2252 8.71179C31.5374 7.02356 29.2932 6.09375 26.9055 6.09375H18.5574L30.1366 17.6733C30.4402 17.9766 30.8441 18.1436 31.2729 18.1436Z" fill="#153243"/>
<path d="M1.40625 33.0062H41.5778C45.119 33.0062 48 30.1256 48 26.5825C48 24.5856 47.2225 22.7087 45.8108 21.2966L45.4698 20.9561H31.2729C30.0934 20.9561 28.9838 20.4968 28.1484 19.6626L14.58 6.09375H1.40625C0.629517 6.09375 0 6.72327 0 7.5V12.1187H14.9626C15.3354 12.1187 15.6932 12.267 15.9569 12.5306L21.9818 18.5559C22.3839 18.958 22.5044 19.5626 22.2869 20.0881C22.069 20.6136 21.5563 20.9564 20.9875 20.9564H0V31.6C0 32.3767 0.629517 33.0062 1.40625 33.0062Z" fill="#153243"/>
<path d="M46.5938 39.0316H34.3341C35.0658 38.1121 35.5836 37.016 35.8147 35.8188H21.2227C21.4534 37.016 21.9712 38.1121 22.7029 39.0316H13.2466C13.9783 38.1121 14.4965 37.016 14.7272 35.8188H0.135498C0.366211 37.016 0.884399 38.1121 1.61609 39.0316H1.40625C0.629517 39.0316 0 39.6611 0 40.4379C0 41.2142 0.629517 41.8441 1.40625 41.8441H46.5938C47.3705 41.8441 48 41.2142 48 40.4379C48 39.6611 47.3705 39.0316 46.5938 39.0316Z" fill="#153243"/>
</g>
<defs>
<clipPath id="clip0_1374_5218">
<rect width="48" height="48" fill="white"/>
</clipPath>
</defs>
</svg>
