<svg width="32" height="30" viewBox="0 0 32 30" fill="none" xmlns="http://www.w3.org/2000/svg">
<rect x="1" y="1" width="30" height="28" rx="5" fill="#F4F5F1" stroke="#153243"/>
<path d="M23.3935 10.3861C23.3045 10.2855 23.161 10.2602 23.0433 10.3223C22.9701 10.3608 22.8325 10.4114 22.6691 10.4614C22.8752 10.1795 23.0409 9.86384 23.1142 9.58012C23.1458 9.45784 23.0995 9.32893 22.9988 9.25604C22.898 9.18376 22.7639 9.18376 22.6632 9.25604C22.5045 9.36989 21.7385 9.71204 21.2541 9.82288C20.1596 8.83679 18.8858 8.73439 17.5617 9.52952C16.4852 10.1759 16.251 11.4903 16.2967 12.2914C13.8329 12.0475 12.3014 10.709 11.4393 9.60121C11.379 9.5235 11.2818 9.48254 11.1904 9.48856C11.0944 9.49579 11.0077 9.55061 10.9585 9.63554C10.5509 10.3433 10.4379 11.1258 10.6329 11.8987C10.7395 12.3203 10.9257 12.692 11.1418 12.9932C11.0382 12.9408 10.938 12.8751 10.8437 12.7968C10.757 12.7233 10.6358 12.7095 10.5333 12.7583C10.4314 12.8083 10.3664 12.9143 10.3664 13.0305C10.3664 14.3576 11.1734 15.2431 11.9272 15.7057C11.8054 15.6906 11.6783 15.6629 11.55 15.6226C11.4399 15.5882 11.3204 15.6226 11.2443 15.7117C11.1682 15.8003 11.15 15.9268 11.1975 16.0346C11.6209 16.9978 12.4232 17.6604 13.4159 17.9008C12.5491 18.4242 11.389 18.6808 10.3266 18.5549C10.189 18.5351 10.0578 18.6248 10.0145 18.761C9.97111 18.8971 10.0279 19.0465 10.1491 19.1164C11.7608 20.047 13.2179 20.3795 14.4771 20.3795C16.3095 20.3795 17.7239 19.676 18.5848 19.0874C20.9057 17.5032 22.3522 14.6588 22.1508 12.1137C22.5226 11.8312 23.079 11.3095 23.424 10.7487C23.4954 10.6355 23.4825 10.4861 23.3935 10.3861Z" fill="#49454F"/>
</svg>
