<svg width="24" height="19" viewBox="0 0 24 19" fill="none" xmlns="http://www.w3.org/2000/svg">
<path d="M6 19C4.34182 19 2.92727 18.3785 1.75636 17.1356C0.585454 15.8848 0 14.3608 0 12.5638C0 11.02 0.425455 9.6425 1.27636 8.43125C2.13455 7.22 3.25455 6.44812 4.63636 6.11562C5.09455 4.29479 6.00364 2.82229 7.36364 1.69812C8.73091 0.566041 10.2764 0 12 0C14.1309 0 15.9345 0.8075 17.4109 2.4225C18.8945 4.02958 19.6364 5.99292 19.6364 8.3125C20.8945 8.47083 21.9345 9.06458 22.7564 10.0938C23.5855 11.1071 24 12.2946 24 13.6562C24 15.1446 23.5236 16.4073 22.5709 17.4444C21.6182 18.4815 20.4582 19 19.0909 19H13.0909C12.4945 19 11.9818 18.7665 11.5527 18.2994C11.1236 17.8402 10.9091 17.2821 10.9091 16.625V10.5094L9.16364 12.35L7.63636 10.6875L12 5.9375L16.3636 10.6875L14.8364 12.35L13.0909 10.5094V16.625H19.0909C19.8545 16.625 20.4982 16.336 21.0218 15.7581C21.5527 15.1881 21.8182 14.4875 21.8182 13.6562C21.8182 12.825 21.5527 12.1244 21.0218 11.5544C20.4982 10.9765 19.8545 10.6875 19.0909 10.6875H17.4545V8.3125C17.4545 6.67375 16.9236 5.2725 15.8618 4.10875C14.8 2.95292 13.5127 2.375 12 2.375C10.4945 2.375 9.20727 2.95292 8.13818 4.10875C7.07636 5.2725 6.54545 6.67375 6.54545 8.3125H6C4.94545 8.3125 4.04727 8.72021 3.30545 9.53562C2.55636 10.3431 2.18182 11.3208 2.18182 12.4688C2.18182 13.6167 2.55636 14.6062 3.30545 15.4375C4.04727 16.2292 4.94545 16.625 6 16.625H8.72727V19" fill="#49454F"/>
</svg>
