<svg width="18" height="20" viewBox="0 0 18 20" fill="none" xmlns="http://www.w3.org/2000/svg">
<path d="M9 0.890381C5.5305 0.890381 2.7 3.56649 2.7 6.84674C2.7 8.89744 3.807 10.7184 5.4846 11.7931C2.2743 13.095 0 16.1072 0 19.6104H1.8C1.8 15.8409 5.013 12.8031 9 12.8031C12.987 12.8031 16.2 15.8409 16.2 19.6104H18C18 16.1072 15.7257 13.0958 12.5154 11.7922C13.3716 11.2458 14.0731 10.5092 14.5586 9.64708C15.044 8.78493 15.2986 7.82344 15.3 6.84674C15.3 3.56649 12.4695 0.890381 9 0.890381ZM9 2.5922C11.4957 2.5922 13.5 4.48717 13.5 6.84674C13.5 9.20632 11.4957 11.1013 9 11.1013C6.5043 11.1013 4.5 9.20632 4.5 6.84674C4.5 4.48717 6.5043 2.5922 9 2.5922Z" fill="#49454F"/>
</svg>
