<svg width="12" height="7" viewBox="0 0 12 7" fill="none" xmlns="http://www.w3.org/2000/svg">
<path d="M9.51249 0.368259L5.60131 4.21682L1.75274 0.305642C1.66091 0.212316 1.5516 0.137992 1.43104 0.0869124C1.31048 0.035833 1.18105 0.00899827 1.05012 0.00794177C0.919197 0.00688526 0.789343 0.0316276 0.667979 0.0807549C0.546614 0.129882 0.436114 0.202432 0.342788 0.294264C0.249462 0.386096 0.175139 0.495411 0.124059 0.615967C0.0729797 0.736522 0.0461459 0.865959 0.0450894 0.996885C0.0440329 1.12781 0.0687743 1.25766 0.117902 1.37903C0.167029 1.50039 0.239578 1.61089 0.33141 1.70422L4.88422 6.33111C4.97599 6.42455 5.08528 6.49899 5.20584 6.55014C5.32641 6.6013 5.45588 6.62817 5.58684 6.62923C5.7178 6.63029 5.84769 6.6055 5.96907 6.5563C6.09044 6.5071 6.20092 6.43444 6.29418 6.34248L10.9211 1.78967C11.0145 1.69791 11.0889 1.58862 11.1401 1.46805C11.1913 1.34749 11.2181 1.21802 11.2192 1.08705C11.2202 0.95609 11.1955 0.826203 11.1463 0.704829C11.0971 0.583454 11.0244 0.472976 10.9324 0.379717C10.5455 -0.00341745 9.90562 -0.0185814 9.51249 0.368259V0.368259Z" fill="#153243"/>
</svg>
