<svg width="526" height="206" viewBox="0 0 526 206" fill="none" xmlns="http://www.w3.org/2000/svg">
<path d="M58.596 5.986L48.165 46H36.366L29.982 19.666L23.37 46H11.571L1.425 5.986H11.856L17.613 35.113L24.738 5.986H35.454L42.294 35.113L48.108 5.986H58.596ZM93.4662 29.584C93.4662 30.496 93.4092 31.446 93.2952 32.434H71.2362C71.3882 34.41 72.0152 35.93 73.1172 36.994C74.2572 38.02 75.6442 38.533 77.2782 38.533C79.7102 38.533 81.4012 37.507 82.3512 35.455H92.7252C92.1932 37.545 91.2242 39.426 89.8182 41.098C88.4502 42.77 86.7212 44.081 84.6312 45.031C82.5412 45.981 80.2042 46.456 77.6202 46.456C74.5042 46.456 71.7302 45.791 69.2982 44.461C66.8662 43.131 64.9662 41.231 63.5982 38.761C62.2302 36.291 61.5462 33.403 61.5462 30.097C61.5462 26.791 62.2112 23.903 63.5412 21.433C64.9092 18.963 66.8092 17.063 69.2412 15.733C71.6732 14.403 74.4662 13.738 77.6202 13.738C80.6982 13.738 83.4342 14.384 85.8282 15.676C88.2222 16.968 90.0842 18.811 91.4142 21.205C92.7822 23.599 93.4662 26.392 93.4662 29.584ZM83.4912 27.019C83.4912 25.347 82.9212 24.017 81.7812 23.029C80.6412 22.041 79.2162 21.547 77.5062 21.547C75.8722 21.547 74.4852 22.022 73.3452 22.972C72.2432 23.922 71.5592 25.271 71.2932 27.019H83.4912ZM135.596 38.932H120.662L118.268 46H108.065L122.543 5.986H133.829L148.307 46H137.99L135.596 38.932ZM133.088 31.408L128.129 16.759L123.227 31.408H133.088ZM162.461 19.495C163.601 17.747 165.026 16.379 166.736 15.391C168.446 14.365 170.346 13.852 172.436 13.852V24.169H169.757C167.325 24.169 165.501 24.701 164.285 25.765C163.069 26.791 162.461 28.615 162.461 31.237V46H152.714V14.194H162.461V19.495ZM207.077 29.584C207.077 30.496 207.02 31.446 206.906 32.434H184.847C184.999 34.41 185.626 35.93 186.728 36.994C187.868 38.02 189.255 38.533 190.889 38.533C193.321 38.533 195.012 37.507 195.962 35.455H206.336C205.804 37.545 204.835 39.426 203.429 41.098C202.061 42.77 200.332 44.081 198.242 45.031C196.152 45.981 193.815 46.456 191.231 46.456C188.115 46.456 185.341 45.791 182.909 44.461C180.477 43.131 178.577 41.231 177.209 38.761C175.841 36.291 175.157 33.403 175.157 30.097C175.157 26.791 175.822 23.903 177.152 21.433C178.52 18.963 180.42 17.063 182.852 15.733C185.284 14.403 188.077 13.738 191.231 13.738C194.309 13.738 197.045 14.384 199.439 15.676C201.833 16.968 203.695 18.811 205.025 21.205C206.393 23.599 207.077 26.392 207.077 29.584ZM197.102 27.019C197.102 25.347 196.532 24.017 195.392 23.029C194.252 22.041 192.827 21.547 191.117 21.547C189.483 21.547 188.096 22.022 186.956 22.972C185.854 23.922 185.17 25.271 184.904 27.019H197.102ZM249.207 38.932H234.273L231.879 46H221.676L236.154 5.986H247.44L261.918 46H251.601L249.207 38.932ZM246.699 31.408L241.74 16.759L236.838 31.408H246.699ZM276.75 25.936C276.75 21.984 277.605 18.469 279.315 15.391C281.025 12.275 283.4 9.862 286.44 8.152C289.518 6.404 292.995 5.53 296.871 5.53C301.621 5.53 305.687 6.784 309.069 9.292C312.451 11.8 314.712 15.22 315.852 19.552H305.136C304.338 17.88 303.198 16.607 301.716 15.733C300.272 14.859 298.619 14.422 296.757 14.422C293.755 14.422 291.323 15.467 289.461 17.557C287.599 19.647 286.668 22.44 286.668 25.936C286.668 29.432 287.599 32.225 289.461 34.315C291.323 36.405 293.755 37.45 296.757 37.45C298.619 37.45 300.272 37.013 301.716 36.139C303.198 35.265 304.338 33.992 305.136 32.32H315.852C314.712 36.652 312.451 40.072 309.069 42.58C305.687 45.05 301.621 46.285 296.871 46.285C292.995 46.285 289.518 45.43 286.44 43.72C283.4 41.972 281.025 39.559 279.315 36.481C277.605 33.403 276.75 29.888 276.75 25.936ZM331.568 19.495C332.708 17.747 334.133 16.379 335.843 15.391C337.553 14.365 339.453 13.852 341.543 13.852V24.169H338.864C336.432 24.169 334.608 24.701 333.392 25.765C332.176 26.791 331.568 28.615 331.568 31.237V46H321.821V14.194H331.568V19.495ZM376.184 29.584C376.184 30.496 376.127 31.446 376.013 32.434H353.954C354.106 34.41 354.733 35.93 355.835 36.994C356.975 38.02 358.362 38.533 359.996 38.533C362.428 38.533 364.119 37.507 365.069 35.455H375.443C374.911 37.545 373.942 39.426 372.536 41.098C371.168 42.77 369.439 44.081 367.349 45.031C365.259 45.981 362.922 46.456 360.338 46.456C357.222 46.456 354.448 45.791 352.016 44.461C349.584 43.131 347.684 41.231 346.316 38.761C344.948 36.291 344.264 33.403 344.264 30.097C344.264 26.791 344.929 23.903 346.259 21.433C347.627 18.963 349.527 17.063 351.959 15.733C354.391 14.403 357.184 13.738 360.338 13.738C363.416 13.738 366.152 14.384 368.546 15.676C370.94 16.968 372.802 18.811 374.132 21.205C375.5 23.599 376.184 26.392 376.184 29.584ZM366.209 27.019C366.209 25.347 365.639 24.017 364.499 23.029C363.359 22.041 361.934 21.547 360.224 21.547C358.59 21.547 357.203 22.022 356.063 22.972C354.961 23.922 354.277 25.271 354.011 27.019H366.209ZM379.388 30.04C379.388 26.772 379.996 23.903 381.212 21.433C382.466 18.963 384.157 17.063 386.285 15.733C388.413 14.403 390.788 13.738 393.41 13.738C395.652 13.738 397.609 14.194 399.281 15.106C400.991 16.018 402.302 17.215 403.214 18.697V14.194H412.961V46H403.214V41.497C402.264 42.979 400.934 44.176 399.224 45.088C397.552 46 395.595 46.456 393.353 46.456C390.769 46.456 388.413 45.791 386.285 44.461C384.157 43.093 382.466 41.174 381.212 38.704C379.996 36.196 379.388 33.308 379.388 30.04ZM403.214 30.097C403.214 27.665 402.53 25.746 401.162 24.34C399.832 22.934 398.198 22.231 396.26 22.231C394.322 22.231 392.669 22.934 391.301 24.34C389.971 25.708 389.306 27.608 389.306 30.04C389.306 32.472 389.971 34.41 391.301 35.854C392.669 37.26 394.322 37.963 396.26 37.963C398.198 37.963 399.832 37.26 401.162 35.854C402.53 34.448 403.214 32.529 403.214 30.097ZM437.74 37.735V46H432.781C429.247 46 426.492 45.145 424.516 43.435C422.54 41.687 421.552 38.856 421.552 34.942V22.288H417.676V14.194H421.552V6.442H431.299V14.194H437.683V22.288H431.299V35.056C431.299 36.006 431.527 36.69 431.983 37.108C432.439 37.526 433.199 37.735 434.263 37.735H437.74ZM448.071 10.888C446.361 10.888 444.955 10.394 443.853 9.406C442.789 8.38 442.257 7.126 442.257 5.644C442.257 4.124 442.789 2.87 443.853 1.882C444.955 0.855997 446.361 0.342997 448.071 0.342997C449.743 0.342997 451.111 0.855997 452.175 1.882C453.277 2.87 453.828 4.124 453.828 5.644C453.828 7.126 453.277 8.38 452.175 9.406C451.111 10.394 449.743 10.888 448.071 10.888ZM452.916 14.194V46H443.169V14.194H452.916ZM474.286 36.88L481.183 14.194H491.557L480.271 46H468.244L456.958 14.194H467.389L474.286 36.88ZM525.642 29.584C525.642 30.496 525.585 31.446 525.471 32.434H503.412C503.564 34.41 504.191 35.93 505.293 36.994C506.433 38.02 507.82 38.533 509.454 38.533C511.886 38.533 513.577 37.507 514.527 35.455H524.901C524.369 37.545 523.4 39.426 521.994 41.098C520.626 42.77 518.897 44.081 516.807 45.031C514.717 45.981 512.38 46.456 509.796 46.456C506.68 46.456 503.906 45.791 501.474 44.461C499.042 43.131 497.142 41.231 495.774 38.761C494.406 36.291 493.722 33.403 493.722 30.097C493.722 26.791 494.387 23.903 495.717 21.433C497.085 18.963 498.985 17.063 501.417 15.733C503.849 14.403 506.642 13.738 509.796 13.738C512.874 13.738 515.61 14.384 518.004 15.676C520.398 16.968 522.26 18.811 523.59 21.205C524.958 23.599 525.642 26.392 525.642 29.584ZM515.667 27.019C515.667 25.347 515.097 24.017 513.957 23.029C512.817 22.041 511.392 21.547 509.682 21.547C508.048 21.547 506.661 22.022 505.521 22.972C504.419 23.922 503.735 25.271 503.469 27.019H515.667ZM18.525 77.986C22.743 77.986 26.429 78.822 29.583 80.494C32.737 82.166 35.169 84.522 36.879 87.562C38.627 90.564 39.501 94.041 39.501 97.993C39.501 101.907 38.627 105.384 36.879 108.424C35.169 111.464 32.718 113.82 29.526 115.492C26.372 117.164 22.705 118 18.525 118H3.534V77.986H18.525ZM17.898 109.564C21.584 109.564 24.453 108.557 26.505 106.543C28.557 104.529 29.583 101.679 29.583 97.993C29.583 94.307 28.557 91.438 26.505 89.386C24.453 87.334 21.584 86.308 17.898 86.308H13.281V109.564H17.898ZM49.8501 82.888C48.1401 82.888 46.7341 82.394 45.6321 81.406C44.5681 80.38 44.0361 79.126 44.0361 77.644C44.0361 76.124 44.5681 74.87 45.6321 73.882C46.7341 72.856 48.1401 72.343 49.8501 72.343C51.5221 72.343 52.8901 72.856 53.9541 73.882C55.0561 74.87 55.6071 76.124 55.6071 77.644C55.6071 79.126 55.0561 80.38 53.9541 81.406C52.8901 82.394 51.5221 82.888 49.8501 82.888ZM54.6951 86.194V118H44.9481V86.194H54.6951ZM73.8426 85.738C76.0846 85.738 78.0416 86.194 79.7136 87.106C81.4236 88.018 82.7346 89.215 83.6466 90.697V86.194H93.3936V117.943C93.3936 120.869 92.8046 123.51 91.6266 125.866C90.4866 128.26 88.7196 130.16 86.3256 131.566C83.9696 132.972 81.0246 133.675 77.4906 133.675C72.7786 133.675 68.9596 132.554 66.0336 130.312C63.1076 128.108 61.4356 125.106 61.0176 121.306H70.6506C70.9546 122.522 71.6766 123.472 72.8166 124.156C73.9566 124.878 75.3626 125.239 77.0346 125.239C79.0486 125.239 80.6446 124.65 81.8226 123.472C83.0386 122.332 83.6466 120.489 83.6466 117.943V113.44C82.6966 114.922 81.3856 116.138 79.7136 117.088C78.0416 118 76.0846 118.456 73.8426 118.456C71.2206 118.456 68.8456 117.791 66.7176 116.461C64.5896 115.093 62.8986 113.174 61.6446 110.704C60.4286 108.196 59.8206 105.308 59.8206 102.04C59.8206 98.772 60.4286 95.903 61.6446 93.433C62.8986 90.963 64.5896 89.063 66.7176 87.733C68.8456 86.403 71.2206 85.738 73.8426 85.738ZM83.6466 102.097C83.6466 99.665 82.9626 97.746 81.5946 96.34C80.2646 94.934 78.6306 94.231 76.6926 94.231C74.7546 94.231 73.1016 94.934 71.7336 96.34C70.4036 97.708 69.7386 99.608 69.7386 102.04C69.7386 104.472 70.4036 106.41 71.7336 107.854C73.1016 109.26 74.7546 109.963 76.6926 109.963C78.6306 109.963 80.2646 109.26 81.5946 107.854C82.9626 106.448 83.6466 104.529 83.6466 102.097ZM105.347 82.888C103.637 82.888 102.231 82.394 101.129 81.406C100.065 80.38 99.5331 79.126 99.5331 77.644C99.5331 76.124 100.065 74.87 101.129 73.882C102.231 72.856 103.637 72.343 105.347 72.343C107.019 72.343 108.387 72.856 109.451 73.882C110.553 74.87 111.104 76.124 111.104 77.644C111.104 79.126 110.553 80.38 109.451 81.406C108.387 82.394 107.019 82.888 105.347 82.888ZM110.192 86.194V118H100.445V86.194H110.192ZM134.983 109.735V118H130.024C126.49 118 123.735 117.145 121.759 115.435C119.783 113.687 118.795 110.856 118.795 106.942V94.288H114.919V86.194H118.795V78.442H128.542V86.194H134.926V94.288H128.542V107.056C128.542 108.006 128.77 108.69 129.226 109.108C129.682 109.526 130.442 109.735 131.506 109.735H134.983ZM138.474 102.04C138.474 98.772 139.082 95.903 140.298 93.433C141.552 90.963 143.243 89.063 145.371 87.733C147.499 86.403 149.874 85.738 152.496 85.738C154.738 85.738 156.695 86.194 158.367 87.106C160.077 88.018 161.388 89.215 162.3 90.697V86.194H172.047V118H162.3V113.497C161.35 114.979 160.02 116.176 158.31 117.088C156.638 118 154.681 118.456 152.439 118.456C149.855 118.456 147.499 117.791 145.371 116.461C143.243 115.093 141.552 113.174 140.298 110.704C139.082 108.196 138.474 105.308 138.474 102.04ZM162.3 102.097C162.3 99.665 161.616 97.746 160.248 96.34C158.918 94.934 157.284 94.231 155.346 94.231C153.408 94.231 151.755 94.934 150.387 96.34C149.057 97.708 148.392 99.608 148.392 102.04C148.392 104.472 149.057 106.41 150.387 107.854C151.755 109.26 153.408 109.963 155.346 109.963C157.284 109.963 158.918 109.26 160.248 107.854C161.616 106.448 162.3 104.529 162.3 102.097ZM188.845 75.82V118H179.098V75.82H188.845ZM253.303 77.986V118H243.556V94.003L234.607 118H226.741L217.735 93.946V118H207.988V77.986H219.502L230.731 105.688L241.846 77.986H253.303ZM258.374 102.04C258.374 98.772 258.982 95.903 260.198 93.433C261.452 90.963 263.143 89.063 265.271 87.733C267.399 86.403 269.774 85.738 272.396 85.738C274.638 85.738 276.595 86.194 278.267 87.106C279.977 88.018 281.288 89.215 282.2 90.697V86.194H291.947V118H282.2V113.497C281.25 114.979 279.92 116.176 278.21 117.088C276.538 118 274.581 118.456 272.339 118.456C269.755 118.456 267.399 117.791 265.271 116.461C263.143 115.093 261.452 113.174 260.198 110.704C258.982 108.196 258.374 105.308 258.374 102.04ZM282.2 102.097C282.2 99.665 281.516 97.746 280.148 96.34C278.818 94.934 277.184 94.231 275.246 94.231C273.308 94.231 271.655 94.934 270.287 96.34C268.957 97.708 268.292 99.608 268.292 102.04C268.292 104.472 268.957 106.41 270.287 107.854C271.655 109.26 273.308 109.963 275.246 109.963C277.184 109.963 278.818 109.26 280.148 107.854C281.516 106.448 282.2 104.529 282.2 102.097ZM308.746 91.495C309.886 89.747 311.311 88.379 313.021 87.391C314.731 86.365 316.631 85.852 318.721 85.852V96.169H316.042C313.61 96.169 311.786 96.701 310.57 97.765C309.354 98.791 308.746 100.615 308.746 103.237V118H298.999V86.194H308.746V91.495ZM342.817 118L333.127 104.662V118H323.38V75.82H333.127V99.133L342.76 86.194H354.787L341.563 102.154L354.901 118H342.817ZM388.597 101.584C388.597 102.496 388.54 103.446 388.426 104.434H366.367C366.519 106.41 367.146 107.93 368.248 108.994C369.388 110.02 370.775 110.533 372.409 110.533C374.841 110.533 376.532 109.507 377.482 107.455H387.856C387.324 109.545 386.355 111.426 384.949 113.098C383.581 114.77 381.852 116.081 379.762 117.031C377.672 117.981 375.335 118.456 372.751 118.456C369.635 118.456 366.861 117.791 364.429 116.461C361.997 115.131 360.097 113.231 358.729 110.761C357.361 108.291 356.677 105.403 356.677 102.097C356.677 98.791 357.342 95.903 358.672 93.433C360.04 90.963 361.94 89.063 364.372 87.733C366.804 86.403 369.597 85.738 372.751 85.738C375.829 85.738 378.565 86.384 380.959 87.676C383.353 88.968 385.215 90.811 386.545 93.205C387.913 95.599 388.597 98.392 388.597 101.584ZM378.622 99.019C378.622 97.347 378.052 96.017 376.912 95.029C375.772 94.041 374.347 93.547 372.637 93.547C371.003 93.547 369.616 94.022 368.476 94.972C367.374 95.922 366.69 97.271 366.424 99.019H378.622ZM411.466 109.735V118H406.507C402.973 118 400.218 117.145 398.242 115.435C396.266 113.687 395.278 110.856 395.278 106.942V94.288H391.402V86.194H395.278V78.442H405.025V86.194H411.409V94.288H405.025V107.056C405.025 108.006 405.253 108.69 405.709 109.108C406.165 109.526 406.925 109.735 407.989 109.735H411.466ZM421.797 82.888C420.087 82.888 418.681 82.394 417.579 81.406C416.515 80.38 415.983 79.126 415.983 77.644C415.983 76.124 416.515 74.87 417.579 73.882C418.681 72.856 420.087 72.343 421.797 72.343C423.469 72.343 424.837 72.856 425.901 73.882C427.003 74.87 427.554 76.124 427.554 77.644C427.554 79.126 427.003 80.38 425.901 81.406C424.837 82.394 423.469 82.888 421.797 82.888ZM426.642 86.194V118H416.895V86.194H426.642ZM453.086 85.852C456.81 85.852 459.774 87.068 461.978 89.5C464.22 91.894 465.341 95.2 465.341 99.418V118H455.651V100.729C455.651 98.601 455.1 96.948 453.998 95.77C452.896 94.592 451.414 94.003 449.552 94.003C447.69 94.003 446.208 94.592 445.106 95.77C444.004 96.948 443.453 98.601 443.453 100.729V118H433.706V86.194H443.453V90.412C444.441 89.006 445.771 87.904 447.443 87.106C449.115 86.27 450.996 85.852 453.086 85.852ZM484.198 85.738C486.44 85.738 488.397 86.194 490.069 87.106C491.779 88.018 493.09 89.215 494.002 90.697V86.194H503.749V117.943C503.749 120.869 503.16 123.51 501.982 125.866C500.842 128.26 499.075 130.16 496.681 131.566C494.325 132.972 491.38 133.675 487.846 133.675C483.134 133.675 479.315 132.554 476.389 130.312C473.463 128.108 471.791 125.106 471.373 121.306H481.006C481.31 122.522 482.032 123.472 483.172 124.156C484.312 124.878 485.718 125.239 487.39 125.239C489.404 125.239 491 124.65 492.178 123.472C493.394 122.332 494.002 120.489 494.002 117.943V113.44C493.052 114.922 491.741 116.138 490.069 117.088C488.397 118 486.44 118.456 484.198 118.456C481.576 118.456 479.201 117.791 477.073 116.461C474.945 115.093 473.254 113.174 472 110.704C470.784 108.196 470.176 105.308 470.176 102.04C470.176 98.772 470.784 95.903 472 93.433C473.254 90.963 474.945 89.063 477.073 87.733C479.201 86.403 481.576 85.738 484.198 85.738ZM494.002 102.097C494.002 99.665 493.318 97.746 491.95 96.34C490.62 94.934 488.986 94.231 487.048 94.231C485.11 94.231 483.457 94.934 482.089 96.34C480.759 97.708 480.094 99.608 480.094 102.04C480.094 104.472 480.759 106.41 482.089 107.854C483.457 109.26 485.11 109.963 487.048 109.963C488.986 109.963 490.62 109.26 491.95 107.854C493.318 106.448 494.002 104.529 494.002 102.097ZM28.443 182.932H13.509L11.115 190H0.912L15.39 149.986H26.676L41.154 190H30.837L28.443 182.932ZM25.935 175.408L20.976 160.759L16.074 175.408H25.935ZM57.6444 157.738C59.8864 157.738 61.8434 158.194 63.5154 159.106C65.2254 160.018 66.5364 161.215 67.4484 162.697V158.194H77.1954V189.943C77.1954 192.869 76.6064 195.51 75.4284 197.866C74.2884 200.26 72.5214 202.16 70.1274 203.566C67.7714 204.972 64.8264 205.675 61.2924 205.675C56.5804 205.675 52.7614 204.554 49.8354 202.312C46.9094 200.108 45.2374 197.106 44.8194 193.306H54.4524C54.7564 194.522 55.4784 195.472 56.6184 196.156C57.7584 196.878 59.1644 197.239 60.8364 197.239C62.8504 197.239 64.4464 196.65 65.6244 195.472C66.8404 194.332 67.4484 192.489 67.4484 189.943V185.44C66.4984 186.922 65.1874 188.138 63.5154 189.088C61.8434 190 59.8864 190.456 57.6444 190.456C55.0224 190.456 52.6474 189.791 50.5194 188.461C48.3914 187.093 46.7004 185.174 45.4464 182.704C44.2304 180.196 43.6224 177.308 43.6224 174.04C43.6224 170.772 44.2304 167.903 45.4464 165.433C46.7004 162.963 48.3914 161.063 50.5194 159.733C52.6474 158.403 55.0224 157.738 57.6444 157.738ZM67.4484 174.097C67.4484 171.665 66.7644 169.746 65.3964 168.34C64.0664 166.934 62.4324 166.231 60.4944 166.231C58.5564 166.231 56.9034 166.934 55.5354 168.34C54.2054 169.708 53.5404 171.608 53.5404 174.04C53.5404 176.472 54.2054 178.41 55.5354 179.854C56.9034 181.26 58.5564 181.963 60.4944 181.963C62.4324 181.963 64.0664 181.26 65.3964 179.854C66.7644 178.448 67.4484 176.529 67.4484 174.097ZM114.229 173.584C114.229 174.496 114.172 175.446 114.058 176.434H91.9989C92.1509 178.41 92.7779 179.93 93.8799 180.994C95.0199 182.02 96.4069 182.533 98.0409 182.533C100.473 182.533 102.164 181.507 103.114 179.455H113.488C112.956 181.545 111.987 183.426 110.581 185.098C109.213 186.77 107.484 188.081 105.394 189.031C103.304 189.981 100.967 190.456 98.3829 190.456C95.2669 190.456 92.4929 189.791 90.0609 188.461C87.6289 187.131 85.7289 185.231 84.3609 182.761C82.9929 180.291 82.3089 177.403 82.3089 174.097C82.3089 170.791 82.9739 167.903 84.3039 165.433C85.6719 162.963 87.5719 161.063 90.0039 159.733C92.4359 158.403 95.2289 157.738 98.3829 157.738C101.461 157.738 104.197 158.384 106.591 159.676C108.985 160.968 110.847 162.811 112.177 165.205C113.545 167.599 114.229 170.392 114.229 173.584ZM104.254 171.019C104.254 169.347 103.684 168.017 102.544 167.029C101.404 166.041 99.9789 165.547 98.2689 165.547C96.6349 165.547 95.2479 166.022 94.1079 166.972C93.0059 167.922 92.3219 169.271 92.0559 171.019H104.254ZM138.751 157.852C142.475 157.852 145.439 159.068 147.643 161.5C149.885 163.894 151.006 167.2 151.006 171.418V190H141.316V172.729C141.316 170.601 140.765 168.948 139.663 167.77C138.561 166.592 137.079 166.003 135.217 166.003C133.355 166.003 131.873 166.592 130.771 167.77C129.669 168.948 129.118 170.601 129.118 172.729V190H119.371V158.194H129.118V162.412C130.106 161.006 131.436 159.904 133.108 159.106C134.78 158.27 136.661 157.852 138.751 157.852ZM155.841 174.097C155.841 170.791 156.506 167.903 157.836 165.433C159.204 162.963 161.085 161.063 163.479 159.733C165.911 158.403 168.685 157.738 171.801 157.738C175.791 157.738 179.116 158.783 181.776 160.873C184.474 162.963 186.241 165.908 187.077 169.708H176.703C175.829 167.276 174.138 166.06 171.63 166.06C169.844 166.06 168.419 166.763 167.355 168.169C166.291 169.537 165.759 171.513 165.759 174.097C165.759 176.681 166.291 178.676 167.355 180.082C168.419 181.45 169.844 182.134 171.63 182.134C174.138 182.134 175.829 180.918 176.703 178.486H187.077C186.241 182.21 184.474 185.136 181.776 187.264C179.078 189.392 175.753 190.456 171.801 190.456C168.685 190.456 165.911 189.791 163.479 188.461C161.085 187.131 159.204 185.231 157.836 182.761C156.506 180.291 155.841 177.403 155.841 174.097ZM224.781 158.194L204.831 205.105H194.343L201.639 188.917L188.7 158.194H199.587L206.94 178.087L214.236 158.194H224.781Z" fill="#1C1B1F"/>
</svg>
