<svg width="30" height="30" viewBox="0 0 30 30" fill="none" xmlns="http://www.w3.org/2000/svg">
<path d="M14.8888 2.5C12.5436 2.5 10.2511 3.23311 8.30108 4.60663C6.3511 5.98015 4.83128 7.93238 3.9338 10.2165C3.03633 12.5005 2.80151 15.0139 3.25904 17.4386C3.71657 19.8634 4.8459 22.0907 6.50422 23.8388C8.16254 25.587 10.2754 26.7775 12.5755 27.2598C14.8757 27.7421 17.2599 27.4946 19.4266 26.5485C21.5933 25.6024 23.4452 24.0002 24.7481 21.9446C26.051 19.889 26.7465 17.4723 26.7465 15C26.7465 13.3585 26.4398 11.733 25.8439 10.2165C25.248 8.69989 24.3745 7.3219 23.2734 6.16117C22.1724 5.00043 20.8652 4.07969 19.4266 3.45151C17.9879 2.82332 16.446 2.5 14.8888 2.5ZM20.4738 12.1375L13.3592 19.6375C13.249 19.7547 13.1178 19.8477 12.9733 19.9111C12.8288 19.9746 12.6738 20.0072 12.5173 20.0072C12.3608 20.0072 12.2058 19.9746 12.0613 19.9111C11.9168 19.8477 11.7856 19.7547 11.6754 19.6375L9.30388 17.1375C9.19333 17.021 9.10563 16.8826 9.04579 16.7303C8.98596 16.578 8.95516 16.4148 8.95516 16.25C8.95516 16.0852 8.98596 15.922 9.04579 15.7697C9.10563 15.6174 9.19333 15.479 9.30388 15.3625C9.41444 15.246 9.5457 15.1535 9.69015 15.0904C9.8346 15.0273 9.98942 14.9949 10.1458 14.9949C10.3021 14.9949 10.457 15.0273 10.6014 15.0904C10.7459 15.1535 10.8771 15.246 10.9877 15.3625L12.5173 16.9875L18.79 10.3625C19.0133 10.1271 19.3161 9.99489 19.6319 9.99489C19.9477 9.99489 20.2505 10.1271 20.4738 10.3625C20.6971 10.5979 20.8225 10.9171 20.8225 11.25C20.8225 11.5829 20.6971 11.9021 20.4738 12.1375Z" fill="#F4F5F1"/>
</svg>
