<svg width="444" height="434" viewBox="0 0 444 434" fill="none" xmlns="http://www.w3.org/2000/svg">
<g clip-path="url(#clip0_676_5881)">
<path d="M33.886 182.775C33.886 182.775 27.4747 250.852 79.5648 305.441C131.655 360.029 211.424 376.339 275.813 391.225C340.202 406.111 394.609 378.353 409.013 325.318C423.416 272.283 375.899 248.248 356.878 182.098C337.857 115.947 342.857 96.0008 290.767 48.7208C238.677 1.44088 146.635 10.2164 91.6238 67.704C36.6122 125.192 33.886 182.775 33.886 182.775Z" fill="#F4F5F1"/>
<path opacity="0.7" d="M-364.178 391.902C-364.178 391.902 -370.589 459.979 -318.499 514.568C-266.409 569.156 -186.64 585.466 -122.251 600.352C-57.8622 615.238 -3.45447 587.48 10.9489 534.445C25.3522 481.41 -22.1646 457.375 -41.1856 391.225C-60.2065 325.075 -55.2071 305.128 -107.297 257.848C-159.387 210.568 -251.428 219.344 -306.44 276.831C-361.452 334.319 -364.178 391.902 -364.178 391.902Z" fill="white"/>
<path d="M16.9519 325.205C19.6159 325.014 24.7841 322.193 24.793 322.193C24.8019 322.193 21.8537 319.415 21.6406 319.259C19.2163 317.523 13.4799 315.483 10.7271 317.402C10.2782 317.732 9.90568 318.151 9.63372 318.631C9.36176 319.112 9.19651 319.643 9.14875 320.19C9.10098 320.737 9.17178 321.288 9.35652 321.807C9.54127 322.325 9.8358 322.8 10.2209 323.2C11.7927 324.962 14.7053 325.361 16.9519 325.205Z" fill="#B4B4B4"/>
<path d="M26.782 339.136C29.1796 338.312 33.149 334.571 33.4598 334.267C35.6447 336.494 37.9794 338.576 40.4484 340.499C41.878 341.619 43.3521 342.712 44.8884 343.789C44.1247 343.398 43.4498 343.051 43.3521 343.016C40.5372 341.94 34.4721 341.48 32.3143 344.04C31.9621 344.474 31.7082 344.975 31.5694 345.512C31.4306 346.049 31.4101 346.608 31.5091 347.153C31.6082 347.698 31.8246 348.216 32.1441 348.673C32.4636 349.13 32.8787 349.516 33.3621 349.804C35.3512 351.097 38.2728 350.733 40.3951 349.995C42.5174 349.257 46.0072 346.132 46.913 345.29C47.4902 345.698 48.0585 346.115 48.6357 346.514C51.4152 348.459 54.2035 350.385 56.8764 352.356C57.8176 353.05 58.7145 353.771 59.6203 354.482C58.9454 354.135 58.3771 353.849 58.2883 353.814C55.4733 352.738 49.4083 352.278 47.2504 354.838C46.9073 355.274 46.6619 355.775 46.53 356.309C46.3981 356.843 46.3827 357.399 46.4849 357.939C46.5871 358.479 46.8045 358.993 47.1231 359.445C47.4416 359.898 47.8542 360.28 48.3338 360.567C50.3229 361.852 53.2444 361.487 55.3668 360.758C57.4891 360.029 60.6415 357.191 61.716 356.201C62.604 356.956 63.492 357.711 64.38 358.493C64.9394 359.031 65.5166 359.517 66.0494 360.09L67.6567 361.756C68.6335 362.841 69.6547 363.961 70.5782 365.055C71.2353 365.81 71.8392 366.53 72.4519 367.268C71.5639 366.565 69.6724 365.228 69.5126 365.133C66.8486 363.657 60.9612 362.294 58.4481 364.517C58.0412 364.895 57.7204 365.353 57.5068 365.861C57.2931 366.368 57.1913 366.914 57.2081 367.463C57.2249 368.012 57.3598 368.551 57.604 369.045C57.8483 369.54 58.1964 369.978 58.6257 370.332C60.4017 371.895 63.341 371.973 65.5521 371.565C67.9941 371.105 72.3364 368.136 72.8781 367.763C73.8816 368.978 74.8584 370.176 75.7552 371.313C78.1795 374.368 80.1952 377.085 81.7492 379.281L83.7384 378.257C82.0867 376.035 79.9377 373.24 77.327 370.098C76.3058 368.857 75.1869 367.555 74.0325 366.226C75.138 364.96 76.1641 363.63 77.105 362.242C79.5115 363.11 84.4576 362.945 85.097 362.928C85.2568 364.49 85.39 366.001 85.4966 367.442C85.7808 371.183 85.9228 374.464 86.0028 377.094L88.1606 375.974C88.0274 373.509 87.8232 370.575 87.4946 367.294C87.3436 365.706 87.1483 364.022 86.9263 362.286C87.5479 362.112 92.6539 360.654 94.5364 359.074C96.2592 357.642 98.0352 355.35 97.8931 352.998C97.8782 352.449 97.7451 351.909 97.5026 351.413C97.2601 350.918 96.9136 350.477 96.4856 350.121C96.0576 349.765 95.5577 349.501 95.0184 349.346C94.4791 349.191 93.9125 349.149 93.3554 349.222C90.0254 349.752 87.388 355.125 86.9352 358.041C86.9352 358.215 86.8286 360.116 86.802 361.314C86.7132 360.611 86.6244 359.925 86.5267 359.196C86.3224 357.755 86.0827 356.323 85.834 354.786C85.686 354.051 85.5351 353.305 85.3812 352.547C85.248 351.792 85.0082 351.019 84.8217 350.247C84.36 348.459 83.7916 346.679 83.1878 344.891C84.4754 344.726 89.0397 344.023 90.9667 342.886C92.8936 341.749 94.9982 339.718 95.2202 337.4C95.29 336.855 95.2418 336.302 95.0789 335.776C94.9159 335.25 94.6419 334.764 94.2744 334.348C93.9069 333.932 93.4542 333.597 92.9456 333.363C92.437 333.129 91.8838 333.002 91.3219 332.991C87.9475 332.991 84.5109 337.947 83.6052 340.803C83.5519 340.985 83.1345 343.077 82.9303 344.231C82.5573 343.155 82.1932 342.087 81.7759 341.02C80.586 337.93 79.2717 334.84 77.9841 331.75L76.8208 328.911C77.2826 328.85 82.726 328.165 84.8839 326.863C86.802 325.7 88.9154 323.694 89.1285 321.377C89.2119 320.827 89.1744 320.266 89.0187 319.731C88.863 319.197 88.5926 318.701 88.2255 318.276C87.8584 317.852 87.403 317.508 86.8896 317.269C86.3762 317.03 85.8165 316.901 85.248 316.889C81.8647 316.889 78.4281 321.846 77.5312 324.658C77.4602 324.875 76.8741 327.887 76.7587 328.659C75.8707 326.576 75.0804 324.484 74.3522 322.401C73.3559 319.585 72.5462 316.709 71.928 313.791C72.1411 313.791 77.8332 313.07 80.0443 311.733C81.9535 310.57 84.0669 308.565 84.2889 306.248C84.36 305.703 84.3131 305.15 84.1513 304.624C83.9894 304.098 83.7162 303.612 83.3494 303.196C82.9826 302.78 82.5304 302.444 82.0222 302.21C81.5139 301.976 80.9611 301.85 80.3995 301.838C77.0162 301.838 73.5796 306.795 72.6828 309.607C72.6117 309.833 71.9724 313.079 71.9013 313.669C71.9013 313.495 71.8125 313.331 71.777 313.157C71.2395 310.212 70.9691 307.226 70.9689 304.234C70.9689 302.585 71.0222 301.005 71.1288 299.469C72.2032 299.469 77.105 299.295 79.2362 298.306C81.3674 297.316 83.5874 295.589 84.0758 293.306C84.2062 292.772 84.2205 292.217 84.1179 291.678C84.0152 291.138 83.7978 290.625 83.4798 290.173C83.1617 289.72 82.7501 289.338 82.2715 289.051C81.793 288.764 81.258 288.578 80.7014 288.506C77.3359 288.176 73.3665 292.698 72.15 295.406C72.0878 295.554 71.5816 297.142 71.262 298.262C71.3241 297.576 71.3685 296.856 71.4396 296.196C71.6971 293.705 72.0967 291.448 72.4608 289.443C72.6739 288.306 72.8959 287.291 73.109 286.336C74.1568 285.772 78.3216 283.471 79.7157 281.666C81.1099 279.86 82.3087 277.326 81.6516 275.052C81.5167 274.516 81.2674 274.014 80.9201 273.579C80.5729 273.144 80.1354 272.786 79.6365 272.527C79.1376 272.269 78.5885 272.117 78.0252 272.081C77.4619 272.045 76.8971 272.125 76.368 272.318C73.2244 273.533 71.8392 279.34 72.0345 282.282C72.0345 282.543 72.7893 286.492 72.8426 286.457H72.9048C72.6828 287.369 72.4519 288.35 72.221 289.435C71.8125 291.431 71.333 293.688 71.0488 296.179C70.6775 298.858 70.467 301.557 70.4184 304.26C70.3501 307.29 70.5582 310.319 71.04 313.313C71.04 313.313 71.04 313.383 71.04 313.417C70.596 312.549 69.264 310.171 69.1396 310.006C67.3636 307.593 62.5951 303.93 59.3716 304.911C58.8409 305.09 58.3546 305.375 57.944 305.749C57.5335 306.123 57.208 306.578 56.9887 307.082C56.7693 307.587 56.6609 308.132 56.6707 308.68C56.6804 309.229 56.8079 309.769 57.0451 310.267C57.9775 312.41 60.5971 313.686 62.8082 314.225C65.2768 314.824 70.6936 313.843 71.1288 313.765C71.6919 316.798 72.4632 319.79 73.4376 322.722C73.997 324.458 74.6097 326.142 75.2136 327.844C74.8051 327.106 74.4321 326.455 74.37 326.368C72.594 323.955 67.8254 320.292 64.602 321.273C64.0713 321.451 63.5849 321.737 63.1744 322.111C62.7638 322.485 62.4383 322.939 62.219 323.444C61.9996 323.949 61.8913 324.494 61.901 325.042C61.9107 325.591 62.0383 326.131 62.2754 326.628C63.2078 328.781 65.8274 330.048 68.0296 330.586C70.2319 331.125 74.8939 330.387 76.1193 330.17C76.3768 330.821 76.6166 331.472 76.8741 332.123C78.0907 335.248 79.325 338.355 80.4261 341.436C80.8168 342.521 81.1632 343.606 81.5184 344.691C81.1543 344.04 80.8346 343.494 80.7813 343.415C79.0053 341.002 74.2279 337.339 71.0133 338.32C70.4818 338.498 69.9945 338.783 69.583 339.157C69.1715 339.53 68.8451 339.984 68.6248 340.489C68.4046 340.994 68.2955 341.539 68.3046 342.088C68.3138 342.637 68.4409 343.178 68.6779 343.676C69.6192 345.82 72.2299 347.096 74.441 347.634C76.6521 348.172 80.8524 347.495 82.3087 347.252C82.6372 348.372 82.9658 349.491 83.1967 350.594C83.3565 351.349 83.5696 352.069 83.694 352.833C83.8183 353.597 83.9604 354.344 84.0936 355.081C84.2889 356.522 84.5109 358.007 84.6708 359.421C84.7862 360.402 84.8839 361.34 84.9816 362.277C84.5997 361.192 83.8183 359.083 83.7295 358.909C82.4668 356.635 80.6334 354.711 78.4015 353.319C78.2699 353.061 78.1154 352.814 77.9397 352.582C77.6173 352.132 77.2017 351.753 76.7199 351.471C76.2381 351.188 75.7008 351.008 75.143 350.941C74.5852 350.875 74.0194 350.924 73.4823 351.086C72.9452 351.247 72.4489 351.517 72.0256 351.878C69.5392 354.118 70.3828 360.02 71.6438 362.702C71.7237 362.859 72.7272 364.482 73.4198 365.497C72.9403 364.959 72.5318 364.43 71.9901 363.883C71.0133 362.789 70.001 361.722 68.9265 360.576L67.2837 358.944C66.7509 358.397 66.1116 357.876 65.5077 357.329C64.1136 356.097 62.6395 354.908 61.1299 353.753C62.1067 352.885 65.5699 349.891 66.4579 347.877C67.3459 345.863 68.0296 343.068 66.9019 341.011C66.6588 340.515 66.3112 340.074 65.8818 339.718C65.4523 339.362 64.9508 339.099 64.41 338.946C63.8692 338.792 63.3014 338.752 62.7438 338.829C62.1861 338.905 61.6513 339.096 61.1743 339.388C58.3682 341.237 58.2794 347.2 59.1141 350.038C59.1674 350.212 60.0021 352.182 60.4816 353.25C59.5936 352.564 58.7056 351.87 57.7111 351.201C54.976 349.266 52.1344 347.391 49.3195 345.516L46.7443 343.78C47.0995 343.485 51.2464 339.978 52.312 337.704C53.2533 335.699 53.8838 332.895 52.756 330.838C52.507 330.351 52.1565 329.921 51.727 329.575C51.2975 329.229 50.7986 328.974 50.2624 328.828C49.7262 328.681 49.1646 328.646 48.6137 328.725C48.0628 328.804 47.5349 328.994 47.064 329.284C44.2579 331.125 44.1691 337.096 45.0127 339.926C45.0748 340.134 46.2825 342.973 46.62 343.676C44.7374 342.391 42.8726 341.072 41.0788 339.752C38.6551 337.944 36.3534 335.984 34.188 333.885C34.3478 333.746 38.7079 330.1 39.7912 327.809C40.7325 325.812 41.3719 323 40.2441 320.943C39.9952 320.451 39.6431 320.015 39.2107 319.664C38.7782 319.314 38.2752 319.056 37.7341 318.908C37.1931 318.759 36.6262 318.724 36.0703 318.804C35.5145 318.884 34.982 319.078 34.5076 319.372C31.7016 321.221 31.6128 327.184 32.4564 330.014C32.5185 330.239 33.8239 333.286 34.0992 333.815L33.7084 333.459C31.5945 331.296 29.6835 328.952 27.9986 326.455C27.0484 325.083 26.2226 323.729 25.4412 322.392C26.3292 321.794 30.3252 319.016 31.5417 317.046C32.7583 315.075 33.6463 312.437 32.7583 310.275C32.5672 309.758 32.267 309.287 31.8772 308.891C31.4874 308.495 31.0166 308.184 30.4956 307.978C29.9746 307.771 29.4151 307.674 28.8533 307.693C28.2915 307.712 27.7401 307.847 27.2349 308.088C24.2424 309.624 23.4876 315.544 24.0026 318.452C24.0026 318.608 24.491 320.188 24.8906 321.325C24.5532 320.717 24.1891 320.092 23.8783 319.502C22.6884 317.289 21.7382 315.162 20.9124 313.331C20.4595 312.263 20.0244 311.291 19.7047 310.379C20.2552 309.355 22.4308 305.171 22.5729 302.932C22.715 300.692 22.2 297.872 20.424 296.353C20.0108 295.98 19.5221 295.697 18.9896 295.521C18.4571 295.346 17.8928 295.282 17.3333 295.333C16.7738 295.385 16.2317 295.551 15.7422 295.821C15.2527 296.091 14.8268 296.458 14.4921 296.899C12.5563 299.607 14.6786 305.197 16.5079 307.55C16.6677 307.758 19.5093 310.648 19.536 310.596V310.536C19.8645 311.404 20.2286 312.367 20.6371 313.391C21.4274 315.275 22.3332 317.401 23.4698 319.65C24.6793 322.086 26.0344 324.451 27.528 326.732C29.1798 329.295 31.0608 331.708 33.149 333.946L33.2289 334.024C32.3409 333.538 29.9167 332.288 29.6769 332.201C26.862 331.125 20.7969 330.665 18.648 333.225C18.3046 333.659 18.0587 334.159 17.9262 334.692C17.7937 335.225 17.7777 335.78 17.879 336.32C17.9804 336.859 18.1969 337.372 18.5146 337.824C18.8322 338.277 19.2437 338.659 19.7224 338.945C21.7382 340.256 24.6508 339.874 26.782 339.136Z" fill="#B4B4B4"/>
<path d="M70.6848 298.991C70.747 298.991 69.7968 295.085 69.708 294.842C68.6868 292.065 65.0371 287.291 61.6539 287.403C61.0939 287.44 60.5479 287.59 60.0512 287.845C59.5544 288.1 59.1179 288.454 58.7697 288.885C58.4216 289.315 58.1697 289.812 58.0302 290.343C57.8907 290.874 57.8667 291.428 57.9598 291.969C58.2883 294.287 60.4817 296.196 62.4531 297.273C64.7619 298.54 70.6759 298.991 70.6848 298.991Z" fill="#B4B4B4"/>
<path d="M425.556 325.205C422.892 325.014 417.724 322.193 417.724 322.193C417.724 322.193 420.663 319.415 420.868 319.259C423.292 317.523 429.037 315.483 431.79 317.402C432.238 317.732 432.61 318.152 432.881 318.633C433.152 319.114 433.317 319.645 433.364 320.192C433.411 320.739 433.339 321.29 433.154 321.808C432.968 322.326 432.673 322.801 432.287 323.2C430.68 324.962 427.803 325.361 425.556 325.205Z" fill="#B4B4B4"/>
<path d="M415.735 339.136C413.337 338.312 409.368 334.571 409.048 334.267C406.866 336.496 404.531 338.578 402.06 340.499C400.63 341.619 399.156 342.712 397.664 343.789C398.419 343.398 399.103 343.051 399.2 343.016C402.015 341.94 408.08 341.48 410.229 344.04C410.572 344.475 410.818 344.975 410.95 345.509C411.081 346.042 411.097 346.597 410.994 347.137C410.892 347.677 410.675 348.189 410.356 348.641C410.038 349.093 409.625 349.475 409.146 349.761C407.157 351.054 404.244 350.689 402.113 349.951C399.982 349.214 396.501 346.089 395.604 345.247L393.872 346.471C391.093 348.415 388.314 350.342 385.641 352.312C384.699 353.007 383.794 353.727 382.888 354.439C383.563 354.092 384.131 353.805 384.229 353.771C387.035 352.694 393.109 352.234 395.258 354.795C395.601 355.23 395.846 355.731 395.978 356.266C396.11 356.8 396.125 357.355 396.023 357.895C395.921 358.436 395.704 358.949 395.385 359.402C395.067 359.855 394.654 360.237 394.174 360.524C392.185 361.808 389.264 361.444 387.141 360.715C385.019 359.986 381.867 357.147 380.792 356.158C379.904 356.913 379.016 357.668 378.128 358.449C377.56 358.987 376.983 359.473 376.45 360.046C375.917 360.619 375.375 361.157 374.851 361.713C373.866 362.798 372.853 363.918 371.921 365.011C371.273 365.766 370.66 366.487 370.047 367.225C370.98 366.522 372.827 365.185 372.996 365.089C375.606 363.614 381.547 362.251 384.051 364.473C384.458 364.851 384.779 365.309 384.993 365.817C385.206 366.325 385.308 366.871 385.291 367.42C385.274 367.968 385.14 368.508 384.895 369.002C384.651 369.496 384.303 369.935 383.874 370.289C382.098 371.851 379.167 371.929 376.947 371.521C374.514 371.061 370.172 368.093 369.63 367.719C368.618 368.935 367.65 370.132 366.744 371.27C364.329 374.325 362.304 377.042 360.75 379.238L358.752 378.214C360.404 375.991 362.562 373.196 365.163 370.054C366.185 368.813 367.303 367.511 368.467 366.183C367.36 364.916 366.331 363.585 365.385 362.199C362.979 363.067 358.033 362.902 357.393 362.885C357.242 364.447 357.1 365.957 356.994 367.398C356.71 371.139 356.568 374.42 356.497 377.05L354.33 375.931C354.463 373.466 354.676 370.532 354.996 367.251C355.156 365.662 355.351 363.978 355.564 362.242C354.943 362.069 349.845 360.611 347.954 359.031C346.24 357.599 344.464 355.307 344.606 352.955C344.62 352.406 344.752 351.866 344.993 351.37C345.235 350.875 345.58 350.434 346.008 350.078C346.435 349.722 346.935 349.458 347.473 349.303C348.012 349.148 348.578 349.106 349.135 349.179C352.474 349.708 355.102 355.081 355.555 357.998C355.555 358.171 355.662 360.072 355.688 361.27C355.786 360.567 355.866 359.881 355.973 359.152C356.168 357.711 356.408 356.279 356.665 354.743C356.807 354.005 356.958 353.259 357.109 352.503C357.26 351.748 357.482 350.976 357.669 350.203C358.139 348.415 358.699 346.636 359.303 344.848C358.015 344.683 353.451 343.98 351.524 342.843C349.597 341.705 347.492 339.674 347.279 337.357C347.208 336.812 347.255 336.259 347.417 335.733C347.579 335.207 347.852 334.721 348.219 334.305C348.585 333.889 349.038 333.553 349.546 333.319C350.054 333.086 350.607 332.959 351.169 332.947C354.552 332.947 357.988 337.904 358.885 340.759C358.947 340.942 359.356 343.033 359.56 344.188C359.933 343.112 360.306 342.044 360.715 340.976C361.913 337.886 363.219 334.796 364.506 331.706C364.906 330.76 365.288 329.814 365.67 328.868C365.217 328.807 359.764 328.121 357.607 326.819C355.697 325.656 353.584 323.651 353.362 321.334C353.291 320.789 353.338 320.236 353.5 319.71C353.661 319.184 353.935 318.697 354.301 318.282C354.668 317.866 355.12 317.53 355.629 317.296C356.137 317.062 356.69 316.935 357.251 316.924C360.635 316.924 364.071 321.88 364.977 324.693C365.039 324.91 365.634 327.922 365.741 328.694C366.629 326.611 367.419 324.519 368.156 322.436C369.155 319.62 369.968 316.744 370.589 313.825C370.376 313.825 364.693 313.105 362.482 311.768C360.564 310.605 358.45 308.6 358.228 306.282C358.158 305.737 358.207 305.184 358.369 304.658C358.532 304.132 358.806 303.646 359.174 303.23C359.541 302.814 359.994 302.479 360.503 302.245C361.011 302.011 361.565 301.884 362.126 301.873C365.51 301.873 368.937 306.829 369.843 309.642C369.914 309.867 370.545 313.114 370.616 313.704C370.616 313.53 370.713 313.365 370.74 313.192C371.282 310.247 371.552 307.261 371.548 304.269C371.548 302.619 371.495 301.04 371.388 299.503C370.314 299.503 365.412 299.33 363.29 298.34C361.167 297.351 358.93 295.623 358.45 293.341C358.318 292.807 358.303 292.251 358.405 291.711C358.507 291.171 358.724 290.658 359.043 290.205C359.361 289.752 359.773 289.37 360.252 289.083C360.732 288.797 361.267 288.612 361.825 288.54C365.19 288.211 369.159 292.733 370.367 295.441C370.438 295.589 370.935 297.177 371.255 298.297C371.193 297.611 371.149 296.891 371.077 296.231C370.82 293.74 370.429 291.483 370.056 289.478C369.843 288.341 369.621 287.325 369.408 286.37C368.369 285.806 364.204 283.506 362.81 281.701C361.416 279.895 360.217 277.361 360.865 275.086C361.001 274.554 361.249 274.055 361.595 273.622C361.94 273.189 362.375 272.833 362.871 272.575C363.367 272.317 363.912 272.164 364.472 272.126C365.033 272.087 365.595 272.164 366.122 272.352C369.266 273.567 370.651 279.374 370.456 282.317C370.456 282.577 369.701 286.527 369.648 286.492H369.586C369.808 287.403 370.047 288.384 370.278 289.469C370.687 291.466 371.166 293.722 371.45 296.214C371.819 298.893 372.026 301.591 372.072 304.295C372.143 307.324 371.938 310.354 371.459 313.348V313.452C371.903 312.584 373.235 310.206 373.36 310.041C375.136 307.628 379.904 303.965 383.128 304.946C383.659 305.123 384.146 305.408 384.558 305.782C384.969 306.156 385.295 306.61 385.515 307.115C385.734 307.621 385.842 308.166 385.832 308.715C385.821 309.264 385.693 309.804 385.454 310.301C384.522 312.445 381.902 313.721 379.7 314.259C377.231 314.858 371.806 313.877 371.371 313.799C370.807 316.832 370.036 319.825 369.062 322.757C368.502 324.493 367.89 326.177 367.286 327.878C367.694 327.14 368.067 326.489 368.129 326.403C369.905 323.99 374.683 320.327 377.897 321.307C378.429 321.485 378.916 321.77 379.328 322.144C379.739 322.517 380.066 322.972 380.286 323.477C380.506 323.982 380.615 324.526 380.606 325.075C380.597 325.624 380.47 326.165 380.233 326.663C379.291 328.816 376.681 330.083 374.47 330.621C372.259 331.159 367.605 330.421 366.38 330.204L365.634 332.157C364.409 335.282 363.174 338.39 362.082 341.471C361.691 342.556 361.345 343.641 360.999 344.726C361.363 344.075 361.674 343.528 361.727 343.45C363.503 341.037 368.28 337.374 371.495 338.355C372.026 338.534 372.512 338.819 372.922 339.193C373.333 339.567 373.658 340.022 373.878 340.526C374.097 341.031 374.206 341.576 374.196 342.124C374.186 342.673 374.059 343.213 373.821 343.711C372.88 345.855 370.269 347.13 368.058 347.669C365.847 348.207 361.647 347.53 360.191 347.287C359.871 348.406 359.542 349.526 359.303 350.629C359.143 351.384 358.93 352.104 358.814 352.868C358.699 353.632 358.548 354.378 358.415 355.116C358.21 356.557 357.997 358.041 357.837 359.456C357.713 360.437 357.615 361.374 357.518 362.312C357.9 361.227 358.69 359.118 358.77 358.944C360.015 356.642 361.843 354.69 364.08 353.276C364.205 353.014 364.36 352.766 364.542 352.538C364.863 352.088 365.278 351.71 365.759 351.428C366.24 351.145 366.777 350.965 367.334 350.898C367.891 350.832 368.456 350.881 368.992 351.043C369.529 351.204 370.024 351.474 370.447 351.835C372.933 354.074 372.099 359.977 370.829 362.659C370.749 362.815 369.745 364.438 369.053 365.454C369.532 364.916 369.994 364.386 370.491 363.839C371.468 362.746 372.472 361.678 373.555 360.532L375.189 358.901C375.731 358.354 376.37 357.833 376.965 357.286C378.359 356.053 379.833 354.864 381.352 353.71C380.375 352.842 376.912 349.847 376.024 347.834C375.136 345.82 374.443 343.025 375.571 340.968C375.819 340.475 376.17 340.038 376.602 339.686C377.034 339.335 377.537 339.076 378.079 338.927C378.62 338.778 379.187 338.742 379.743 338.822C380.299 338.901 380.832 339.094 381.307 339.388C384.113 341.237 384.193 347.2 383.359 350.038C383.305 350.212 382.471 352.182 381.991 353.25C382.879 352.564 383.811 351.87 384.762 351.201C387.505 349.266 390.338 347.391 393.162 345.516L395.728 343.78C395.382 343.485 391.226 339.978 390.161 337.704C389.219 335.699 388.589 332.895 389.717 330.838C389.964 330.345 390.316 329.908 390.748 329.557C391.181 329.205 391.684 328.947 392.225 328.799C392.767 328.65 393.334 328.615 393.89 328.696C394.447 328.777 394.979 328.971 395.453 329.267C398.25 331.107 398.339 337.079 397.504 339.909C397.442 340.117 396.235 342.955 395.888 343.658C397.78 342.374 399.644 341.054 401.429 339.735C403.855 337.928 406.157 335.968 408.32 333.867C408.16 333.729 403.809 330.083 402.717 327.791C401.776 325.795 401.145 322.983 402.273 320.926C402.521 320.433 402.872 319.998 403.304 319.647C403.735 319.297 404.238 319.039 404.778 318.891C405.318 318.742 405.885 318.707 406.44 318.787C406.995 318.867 407.527 319.06 408.001 319.354C410.807 321.203 410.895 327.166 410.052 329.996C409.99 330.222 408.693 333.268 408.418 333.798L408.809 333.442C410.917 331.277 412.825 328.933 414.51 326.437C415.46 325.066 416.286 323.712 417.067 322.375C416.179 321.776 412.183 318.999 410.975 317.028C409.768 315.058 408.871 312.419 409.759 310.258C409.95 309.741 410.25 309.269 410.64 308.874C411.03 308.478 411.5 308.166 412.021 307.96C412.542 307.754 413.102 307.657 413.664 307.676C414.226 307.695 414.777 307.829 415.282 308.07C418.275 309.607 419.029 315.527 418.514 318.434C418.514 318.591 418.017 320.17 417.626 321.307C417.964 320.7 418.328 320.075 418.648 319.485C419.838 317.271 420.779 315.145 421.605 313.313C422.066 312.246 422.493 311.273 422.821 310.362C422.262 309.338 420.095 305.154 419.944 302.915C419.793 300.675 420.255 297.871 422.058 296.352C422.471 295.98 422.959 295.697 423.492 295.521C424.024 295.346 424.589 295.282 425.148 295.333C425.708 295.385 426.25 295.551 426.739 295.821C427.229 296.091 427.655 296.458 427.989 296.899C429.925 299.607 427.803 305.197 425.982 307.55C425.823 307.758 422.972 310.648 422.946 310.596V310.536C422.626 311.404 422.262 312.367 421.844 313.391C421.063 315.275 420.157 317.401 419.012 319.65C417.808 322.086 416.459 324.451 414.971 326.732C413.325 329.299 411.444 331.713 409.35 333.946L409.27 334.024C410.158 333.538 412.583 332.288 412.822 332.201C415.628 331.125 421.702 330.664 423.851 333.225C424.194 333.66 424.44 334.16 424.571 334.694C424.703 335.227 424.719 335.782 424.616 336.322C424.514 336.861 424.297 337.374 423.978 337.826C423.66 338.278 423.247 338.659 422.768 338.945C420.779 340.256 417.857 339.874 415.735 339.136Z" fill="#B4B4B4"/>
<path d="M371.832 298.991C371.77 298.991 372.72 295.085 372.8 294.842C373.821 292.065 377.48 287.291 380.854 287.403C381.415 287.438 381.962 287.588 382.459 287.843C382.956 288.097 383.394 288.451 383.742 288.882C384.09 289.312 384.342 289.81 384.481 290.342C384.62 290.874 384.643 291.428 384.548 291.969C384.229 294.287 382.026 296.196 380.064 297.273C377.755 298.54 371.832 298.991 371.832 298.991Z" fill="#B4B4B4"/>
<path d="M81.9003 174.121L82.6373 174.598" stroke="#FFBA08" stroke-miterlimit="10"/>
<path d="M84.1292 175.544L220.197 262.023" stroke="#FFBA08" stroke-miterlimit="10" stroke-dasharray="2 2"/>
<path d="M220.943 262.501L221.68 262.969L221.201 262.249" stroke="#FFBA08" stroke-miterlimit="10"/>
<path d="M220.242 260.799L103.523 85.3765" stroke="#FFBA08" stroke-miterlimit="10" stroke-dasharray="1.98 1.98"/>
<path d="M103.035 84.656L102.555 83.9269" stroke="#FFBA08" stroke-miterlimit="10"/>
<path d="M361.469 174.121L360.732 174.598" stroke="#FFBA08" stroke-miterlimit="10"/>
<path d="M359.24 175.544L223.172 262.023" stroke="#FFBA08" stroke-miterlimit="10" stroke-dasharray="2 2"/>
<path d="M222.426 262.501L221.68 262.969L222.169 262.249" stroke="#FFBA08" stroke-miterlimit="10"/>
<path d="M223.128 260.799L339.847 85.3765" stroke="#FFBA08" stroke-miterlimit="10" stroke-dasharray="1.98 1.98"/>
<path d="M340.326 84.656L340.814 83.9269" stroke="#FFBA08" stroke-miterlimit="10"/>
<path d="M221.68 57.0016V57.8696" stroke="#FFBA08" stroke-miterlimit="10"/>
<path d="M221.68 59.6143V261.233" stroke="#FFBA08" stroke-miterlimit="10" stroke-dasharray="2.01 2.01"/>
<path d="M221.68 262.101V262.969" stroke="#FFBA08" stroke-miterlimit="10"/>
<path d="M223.341 79.7692C238.422 79.7692 250.647 67.8192 250.647 53.0782C250.647 38.3372 238.422 26.3872 223.341 26.3872C208.26 26.3872 196.035 38.3372 196.035 53.0782C196.035 67.8192 208.26 79.7692 223.341 79.7692Z" fill="#FFBA08" stroke="#FFBA08" stroke-width="2" stroke-miterlimit="10"/>
<path d="M223.341 53.0782L246.322 38.6694C242.927 33.5022 237.816 29.6344 231.848 27.7152L223.341 53.0782Z" fill="#FFBA08" stroke="#FFBA08" stroke-miterlimit="10"/>
<path d="M223.341 53.0782L236.208 76.6097C239.527 74.8703 242.443 72.4785 244.771 69.5846C247.099 66.6907 248.789 63.3574 249.736 59.7941C250.683 56.2308 250.865 52.5147 250.271 48.8792C249.678 45.2438 248.321 41.7677 246.287 38.6694L223.341 53.0782Z" fill="white" stroke="#FFBA08" stroke-miterlimit="10"/>
<path d="M355.566 102.626C366.226 92.2054 366.226 75.3111 355.566 64.891C344.906 54.4709 327.622 54.4709 316.962 64.891C306.302 75.3111 306.302 92.2055 316.962 102.626C327.622 113.046 344.906 113.046 355.566 102.626Z" stroke="#FFBA08" stroke-miterlimit="10"/>
<path d="M336.259 106.894C349.329 106.894 359.924 96.5375 359.924 83.762C359.924 70.9864 349.329 60.6298 336.259 60.6298C323.189 60.6298 312.594 70.9864 312.594 83.762C312.594 96.5375 323.189 106.894 336.259 106.894Z" fill="#FFBA08"/>
<path d="M349.872 83.762L326.953 70.8201V96.6952L349.872 83.762Z" fill="white"/>
<path d="M403.082 177.289C406.747 162.334 397.314 147.306 382.014 143.724C366.714 140.141 351.34 149.361 347.675 164.317C344.01 179.272 353.443 194.3 368.743 197.882C384.043 201.465 399.417 192.245 403.082 177.289Z" fill="#FFBA08"/>
<path d="M395.186 175.442C397.794 164.759 391.048 154.033 380.119 151.484C369.19 148.935 358.216 155.529 355.609 166.211C353.001 176.894 359.747 187.621 370.676 190.17C381.605 192.719 392.578 186.125 395.186 175.442Z" fill="white"/>
<path d="M387.239 173.556C388.797 167.143 384.741 160.709 378.18 159.186C371.62 157.663 365.038 161.627 363.48 168.04C361.921 174.453 365.977 180.887 372.538 182.41C379.099 183.933 385.68 179.969 387.239 173.556Z" fill="#FFBA08"/>
<path d="M381.796 172.313C382.633 168.861 380.449 165.399 376.917 164.581C373.386 163.764 369.845 165.899 369.008 169.351C368.171 172.803 370.356 176.264 373.887 177.082C377.419 177.9 380.96 175.764 381.796 172.313Z" fill="white"/>
<path d="M411.677 157.455L408.054 156.075L409.634 155.32C409.726 155.279 409.808 155.221 409.876 155.149C409.944 155.076 409.997 154.991 410.031 154.899C410.065 154.807 410.08 154.708 410.075 154.61C410.07 154.512 410.045 154.416 410.001 154.327C409.957 154.239 409.896 154.16 409.82 154.095C409.745 154.03 409.657 153.98 409.561 153.949C409.466 153.918 409.365 153.906 409.265 153.913C409.165 153.92 409.067 153.947 408.977 153.992L407.832 154.539L409.652 150.685L402.894 153.636L401.909 157.342L375.047 170.128C374.957 170.171 374.878 170.23 374.812 170.303C374.746 170.376 374.695 170.46 374.663 170.552C374.631 170.644 374.618 170.742 374.624 170.839C374.631 170.936 374.657 171.03 374.7 171.118C374.742 171.205 374.802 171.284 374.875 171.349C374.949 171.414 375.035 171.464 375.129 171.495C375.222 171.527 375.322 171.54 375.42 171.533C375.519 171.526 375.616 171.5 375.704 171.456L402.655 158.627L405.594 160.25L411.677 157.455Z" fill="#FFBA08"/>
<path d="M104.935 110.436C120.663 110.436 133.413 97.9727 133.413 82.5988C133.413 67.225 120.663 54.7621 104.935 54.7621C89.207 54.7621 76.4568 67.225 76.4568 82.5988C76.4568 97.9727 89.207 110.436 104.935 110.436Z" fill="white" stroke="#FFBA08" stroke-width="2" stroke-miterlimit="10"/>
<path d="M104.935 110.436C116.342 110.436 125.59 97.9727 125.59 82.5988C125.59 67.225 116.342 54.7621 104.935 54.7621C93.5276 54.7621 84.2801 67.225 84.2801 82.5988C84.2801 97.9727 93.5276 110.436 104.935 110.436Z" fill="white" stroke="#FFBA08" stroke-miterlimit="10"/>
<path d="M104.935 110.436C109.79 110.436 113.726 97.9727 113.726 82.5988C113.726 67.225 109.79 54.7621 104.935 54.7621C100.08 54.7621 96.1438 67.225 96.1438 82.5988C96.1438 97.9727 100.08 110.436 104.935 110.436Z" fill="white" stroke="#FFBA08" stroke-miterlimit="10"/>
<path d="M89.8479 59.0847H120.528" stroke="#FFBA08" stroke-miterlimit="10"/>
<path d="M79.5293 69.9955H130.296" stroke="#FFBA08" stroke-miterlimit="10"/>
<path d="M76.5989 80.8976H133.36" stroke="#FFBA08" stroke-miterlimit="10"/>
<path d="M77.851 91.8083H131.69" stroke="#FFBA08" stroke-miterlimit="10"/>
<path d="M85.5233 102.71H124.853" stroke="#FFBA08" stroke-miterlimit="10"/>
<path d="M67.6567 198.65C83.3848 198.65 96.1349 186.187 96.1349 170.814C96.1349 155.44 83.3848 142.977 67.6567 142.977C51.9287 142.977 39.1786 155.44 39.1786 170.814C39.1786 186.187 51.9287 198.65 67.6567 198.65Z" fill="#FFBA08" stroke="#FFBA08" stroke-width="2" stroke-miterlimit="10"/>
<path d="M85.7009 157.655H47.9343V187.193H85.7009V157.655Z" fill="white" stroke="#FFBA08" stroke-width="2" stroke-miterlimit="10"/>
<path d="M88.063 157.655H45.5722V169.651H88.063V157.655Z" fill="white" stroke="#FFBA08" stroke-width="2" stroke-miterlimit="10"/>
<path d="M66.7776 157.36C66.7776 157.36 57.8976 147.195 56.3791 147.682C54.8607 148.168 50.9357 154.938 53.1646 155.667C55.3935 156.396 66.7776 157.36 66.7776 157.36Z" fill="#FFBA08"/>
<path d="M66.8575 157.36C66.8575 157.36 75.7375 147.195 77.256 147.682C78.7745 148.168 82.7083 154.938 80.4795 155.667C78.2506 156.396 66.8575 157.36 66.8575 157.36Z" fill="#FFBA08"/>
<path d="M69.5038 178.417L66.8309 173.878L64.0604 178.417V158.089H69.5038V178.417Z" fill="#FFBA08"/>
<path d="M80.2664 247.502L221.583 169.755L366.362 247.502V360.211H82.0068L80.2664 247.502Z" fill="#153243" stroke="#153243" stroke-linecap="round" stroke-linejoin="round"/>
<path d="M329.093 190.726H117.553V374.62H329.093V190.726Z" fill="white" stroke="#153243" stroke-miterlimit="10"/>
<path d="M141.823 222.928H302.213" stroke="#153243" stroke-miterlimit="10"/>
<path d="M141.823 239.03H302.213" stroke="#153243" stroke-miterlimit="10"/>
<path d="M141.823 255.131H302.213" stroke="#153243" stroke-miterlimit="10"/>
<path d="M141.823 271.233H302.213" stroke="#153243" stroke-miterlimit="10"/>
<path d="M141.823 287.334H302.213" stroke="#153243" stroke-miterlimit="10"/>
<path d="M141.823 303.435H302.213" stroke="#153243" stroke-miterlimit="10"/>
<path d="M366.362 402.587H80.2664V247.501L223.323 342.417L366.362 247.501V402.587Z" fill="#FFBA08" stroke="#153243" stroke-miterlimit="10"/>
<path d="M80.2664 402.587L184.287 316.473" stroke="#153243" stroke-miterlimit="10"/>
<path d="M365.909 402.587L262.662 316.334" stroke="#153243" stroke-miterlimit="10"/>
<path d="M254.261 139.462C254.261 139.462 253.187 144.374 254.625 145.954C256.064 147.534 261.445 153.15 261.445 154.027C261.445 154.903 259.669 180.179 259.669 180.179L251.411 174.39L246.385 189.484C246.385 189.484 258.95 194.753 264.882 195.803C270.813 196.854 271.879 195.274 271.879 190.717C271.879 186.16 267.208 151.223 267.208 151.223C267.208 151.223 268.647 143.151 268.647 141.744C268.647 140.338 269.188 139.635 267.927 138.932C266.666 138.229 256.437 137.196 256.437 137.196C256.437 137.196 254.261 138.055 254.261 139.462Z" fill="white" stroke="#153243" stroke-linecap="round" stroke-linejoin="round"/>
<path d="M251.597 176.516L248.871 190.04L246.367 189.484L251.597 176.516Z" fill="#153243" stroke="#153243" stroke-linecap="round" stroke-linejoin="round"/>
<path d="M271.728 143.402L251.384 140.729V135.773C251.384 135.542 251.477 135.322 251.644 135.159C251.811 134.996 252.036 134.905 252.272 134.905C252.507 134.905 252.733 134.996 252.9 135.159C253.066 135.322 253.16 135.542 253.16 135.773V139.245L270.165 141.484L270.458 137.474C270.44 137.346 270.451 137.215 270.49 137.091C270.53 136.968 270.598 136.855 270.688 136.76C270.779 136.665 270.889 136.591 271.013 136.544C271.136 136.497 271.269 136.477 271.401 136.486C271.533 136.496 271.662 136.534 271.777 136.598C271.892 136.662 271.991 136.75 272.066 136.857C272.142 136.963 272.192 137.084 272.214 137.212C272.235 137.34 272.227 137.471 272.19 137.595L271.728 143.402Z" fill="#153243"/>
<path d="M256.064 141.744L267.19 142.795L267.91 138.932L256.419 137.179L256.064 141.744Z" fill="white" stroke="#153243" stroke-linecap="round" stroke-linejoin="round"/>
<path d="M254.083 142.274C254.083 142.274 254.083 137.882 254.625 137.535C255.167 137.187 262.884 137.708 262.884 138.759C262.884 139.809 262.884 140.338 261.996 140.338C261.108 140.338 259.332 140.512 259.332 140.512C259.332 140.512 263.461 144.201 262.2 147.534" fill="white"/>
<path d="M254.083 142.274C254.083 142.274 254.083 137.882 254.625 137.535C255.167 137.187 262.884 137.708 262.884 138.759C262.884 139.809 262.884 140.338 261.996 140.338C261.108 140.338 259.332 140.512 259.332 140.512C259.332 140.512 263.461 144.201 262.2 147.534" stroke="#153243" stroke-linecap="round" stroke-linejoin="round"/>
<path d="M259.651 180.179L258.932 187.905" stroke="#153243" stroke-linecap="round" stroke-linejoin="round"/>
<path d="M168.462 176.812C168.462 176.812 143.083 196.168 143.741 198.26C144.398 200.352 163.223 217.946 169.448 222.26C175.673 226.574 179.11 228.51 179.11 228.51L183.035 230.905C183.035 230.905 181.401 233.509 182.386 233.952C183.372 234.395 186.968 236.192 187.457 235.228C187.945 234.265 190.574 227.069 190.245 225.307C189.917 223.545 180.415 222.104 179.767 221.462C179.118 220.819 163.552 197.158 163.552 197.158L175.673 187.879L168.462 176.812Z" fill="white" stroke="#153243" stroke-linecap="round" stroke-linejoin="round"/>
<path d="M168.027 177.454L172.636 189.667L175.673 187.852L168.027 177.454Z" fill="#153243" stroke="#153243" stroke-linecap="round" stroke-linejoin="round"/>
<path d="M183.035 230.888C183.035 230.888 184.189 233.292 186.151 233.492" stroke="#153243" stroke-linecap="round" stroke-linejoin="round"/>
<path d="M163.552 197.131L160.275 191.533" stroke="#153243" stroke-linecap="round" stroke-linejoin="round"/>
<path d="M185.335 372.389L185.068 386.616L196.994 386.868L198.051 371.365L185.335 372.389Z" fill="white" stroke="#153243" stroke-linecap="round" stroke-linejoin="round"/>
<path d="M185.379 371.617V375.132L197.749 375.696L198.033 372.042L185.379 371.617Z" fill="#153243" stroke="#153243" stroke-linecap="round" stroke-linejoin="round"/>
<path d="M190.964 382.901C190.964 382.901 189.393 376.877 187.031 376.747C184.668 376.616 183.479 378.413 182.591 380.08C181.703 381.746 175.904 387.38 173.933 388.76C171.961 390.14 167.646 391.963 166.988 396.06C166.331 400.157 168.818 401.832 170.54 402.214C172.263 402.596 179.98 402.726 184.571 402.214C189.162 401.702 201.674 402.917 202.402 402.214C203.13 401.511 204.107 399.263 203.45 397.726C202.935 396.608 202.32 395.536 201.612 394.523C201.612 394.523 202.926 390.808 202.135 388.76C201.345 386.711 199.773 384.142 200.04 382.988C200.306 381.833 203.183 379.403 201.221 379.273C199.258 379.142 196.106 381.451 194.117 382.094C193.094 382.459 192.039 382.73 190.964 382.901Z" fill="#153243" stroke="#153243" stroke-linecap="round" stroke-linejoin="round"/>
<path d="M199.356 395.07C197.518 395.331 190.476 398.655 185.983 399.688C181.489 400.721 177.6 400.834 175.495 399.809C173.391 398.785 171.562 395.712 169.99 393.785C168.418 391.859 167.113 396.737 167.113 396.737L166.891 396.832C166.624 400.4 168.915 401.884 170.514 402.248C172.112 402.613 179.953 402.761 184.544 402.248C189.135 401.736 201.647 402.952 202.375 402.248C203.103 401.545 204.08 399.297 203.423 397.761C202.908 396.642 202.293 395.571 201.585 394.558C200.803 394.428 201.194 394.818 199.356 395.07Z" fill="white" stroke="#153243" stroke-linecap="round" stroke-linejoin="round"/>
<path d="M180.264 383.656C180.264 383.656 183.816 382.892 188.256 387.128L185.903 389.046C185.903 389.046 181.312 385.574 178.426 385.574L180.264 383.656Z" fill="white" stroke="#153243" stroke-linecap="round" stroke-linejoin="round"/>
<path d="M176.943 386.26C176.943 386.26 180.495 385.487 184.935 389.732L182.582 391.659C182.582 391.659 177.991 388.187 175.105 388.187L176.943 386.26Z" fill="white" stroke="#153243" stroke-linecap="round" stroke-linejoin="round"/>
<path d="M187.297 385.843L190.964 382.901" stroke="#153243" stroke-linecap="round" stroke-linejoin="round"/>
<path d="M182.582 391.616C182.582 391.616 183.47 393.534 181.925 394.688C180.379 395.843 169.99 393.916 170.123 392.51C170.256 391.104 175.105 388.17 175.105 388.17C177.815 388.798 180.361 389.972 182.582 391.616Z" fill="white" stroke="#153243" stroke-linecap="round" stroke-linejoin="round"/>
<path d="M260.557 372.389L260.814 386.616L248.889 386.868L247.841 371.365L260.557 372.389Z" fill="white" stroke="#153243" stroke-linecap="round" stroke-linejoin="round"/>
<path d="M248.072 374.004V376.113L260.726 375.974L260.584 372.884L247.788 372.745L248.072 374.004Z" fill="#153243" stroke="#153243" stroke-linecap="round" stroke-linejoin="round"/>
<path d="M254.918 382.901C254.918 382.901 256.49 376.877 258.852 376.747C261.214 376.616 262.404 378.413 263.292 380.08C264.18 381.746 269.979 387.38 271.941 388.76C273.904 390.14 278.237 391.963 278.885 396.06C279.534 400.157 277.056 401.832 275.333 402.214C273.611 402.596 265.894 402.726 261.303 402.214C256.712 401.702 244.2 402.917 243.481 402.214C242.761 401.511 241.776 399.263 242.424 397.726C242.939 396.608 243.554 395.536 244.262 394.523C244.262 394.523 242.948 390.808 243.738 388.76C244.529 386.711 246.1 384.142 245.834 382.988C245.568 381.833 242.69 379.403 244.653 379.273C246.615 379.142 249.768 381.451 251.757 382.094C252.782 382.461 253.84 382.731 254.918 382.901Z" fill="#153243" stroke="#153243" stroke-linecap="round" stroke-linejoin="round"/>
<path d="M246.527 395.07C248.365 395.331 255.407 398.655 259.9 399.688C264.393 400.721 268.291 400.834 270.387 399.809C272.483 398.785 274.321 395.712 275.893 393.785C277.464 391.859 278.779 396.737 278.779 396.737L278.992 396.832C279.258 400.4 276.967 401.884 275.369 402.248C273.77 402.613 265.929 402.761 261.338 402.248C256.747 401.736 244.236 402.952 243.516 402.248C242.797 401.545 241.811 399.297 242.46 397.761C242.975 396.642 243.59 395.571 244.298 394.558C245.088 394.428 244.688 394.818 246.527 395.07Z" fill="white" stroke="#153243" stroke-linecap="round" stroke-linejoin="round"/>
<path d="M265.663 383.656C265.663 383.656 262.111 382.892 257.671 387.128L260.033 389.046C260.033 389.046 264.615 385.574 267.501 385.574L265.663 383.656Z" fill="white" stroke="#153243" stroke-linecap="round" stroke-linejoin="round"/>
<path d="M268.94 386.26C268.94 386.26 265.388 385.487 260.948 389.732L263.31 391.659C263.31 391.659 267.892 388.187 270.778 388.187L268.94 386.26Z" fill="white" stroke="#153243" stroke-linecap="round" stroke-linejoin="round"/>
<path d="M258.586 385.843L254.918 382.901" stroke="#153243" stroke-linecap="round" stroke-linejoin="round"/>
<path d="M263.31 391.616C263.31 391.616 262.422 393.534 263.958 394.688C265.494 395.843 275.893 393.916 275.76 392.51C275.626 391.104 270.778 388.17 270.778 388.17C268.07 388.798 265.527 389.971 263.31 391.616Z" fill="white" stroke="#153243" stroke-linecap="round" stroke-linejoin="round"/>
<path d="M190.813 222.208C190.813 222.208 183.878 249.889 181.276 273.342C178.674 296.795 174.625 373.622 174.625 373.622H206.416C206.416 373.622 215.953 295.65 217.4 281.814C218.848 267.978 218.839 259.246 218.839 259.246L236.759 373.657H274.614C274.614 373.657 260.166 301.057 254.385 267.761C248.604 234.464 240.515 221.436 240.515 221.436L190.813 222.208Z" fill="#6A6A6A" stroke="#153243" stroke-linecap="round" stroke-linejoin="round"/>
<path d="M217.977 224.213C217.702 225.02 210.172 236.079 212.481 236.921C214.789 237.763 219.132 237.789 219.132 235.514V226.47C219.132 226.47 219.709 239.186 222.311 238.622C224.913 238.058 228.376 238.622 227.515 235.792C226.653 232.963 220.002 223.944 220.002 223.944C220.002 223.944 218.839 221.67 217.977 224.213Z" fill="#6A6A6A" stroke="#153243" stroke-linecap="round" stroke-linejoin="round"/>
<path d="M219.167 225.142C219.167 225.142 225.721 234.238 225.09 235.063C224.46 235.888 223.607 236.712 222.977 235.48C222.346 234.247 219.167 225.142 219.167 225.142Z" stroke="#153243" stroke-miterlimit="10"/>
<path d="M218.954 224.109C218.954 224.109 214.088 234.238 214.727 234.646C214.955 234.784 215.214 234.867 215.481 234.887C215.748 234.908 216.017 234.866 216.264 234.765C216.511 234.664 216.731 234.507 216.903 234.307C217.076 234.106 217.198 233.869 217.258 233.613C217.684 232.173 218.954 224.109 218.954 224.109Z" stroke="#153243" stroke-miterlimit="10"/>
<path d="M238.703 252.979C238.97 254.411 239.201 255.765 239.36 256.98" stroke="#153243" stroke-linecap="round" stroke-linejoin="round"/>
<path d="M231.848 225.064C231.848 225.064 235.453 237.65 237.771 248.335" stroke="#153243" stroke-linecap="round" stroke-linejoin="round"/>
<path d="M229.246 225.064C229.246 225.064 231.555 240.879 232.709 245.115" stroke="#153243" stroke-linecap="round" stroke-linejoin="round"/>
<path d="M197.793 246.963C197.669 248.057 197.562 249.055 197.456 249.915" stroke="#153243" stroke-linecap="round" stroke-linejoin="round"/>
<path d="M200.058 225.064C200.058 225.064 199.099 234.725 198.282 242.71" stroke="#153243" stroke-linecap="round" stroke-linejoin="round"/>
<path d="M197.749 225.628L196.585 239.186" stroke="#153243" stroke-linecap="round" stroke-linejoin="round"/>
<path d="M217.995 109.802C217.995 109.802 228.767 110.852 226.254 116.295C223.74 121.737 221.227 122.787 220.686 122.787C220.144 122.787 215.837 116.295 215.837 116.295L217.995 109.802Z" fill="#153243" stroke="#153243" stroke-linecap="round" stroke-linejoin="round"/>
<path d="M216.734 114.888C216.734 114.888 220.863 117.171 222.124 121.381C223.385 125.591 226.609 126.823 227.515 126.65C228.42 126.476 229.663 129.106 228.589 130.86L227.515 132.596C227.515 132.596 228.403 144.531 227.328 146.11C226.254 147.69 219.611 146.813 219.611 146.813C219.611 146.813 218.173 152.429 219.434 155.945C220.695 159.46 224.46 161.205 225.898 161.205C227.337 161.205 230.383 159.469 234.512 161.561C238.641 163.653 252.467 173.843 252.467 173.843L245.088 193.564L237.185 189.528L242.753 223.05L188.887 224.283C188.887 224.283 189.428 200.412 187.999 196.02C187 193.11 185.737 190.292 184.225 187.601L177.405 192.861L167.885 176.716C167.885 176.716 181.889 163.028 187.421 161.795C192.954 160.563 199.631 162.151 201.789 159.512C203.947 156.874 202.144 144.418 202.144 144.418C202.144 144.418 196.941 142.682 193.886 133.715C190.831 124.749 201.247 115.487 201.247 115.487C201.247 115.487 205.963 110.679 216.734 114.888Z" fill="white" stroke="#153243" stroke-linecap="round" stroke-linejoin="round"/>
<path d="M219.611 146.831L214.754 146.032L218.652 150.416L219.611 146.831Z" fill="#153243" stroke="#153243" stroke-linecap="round" stroke-linejoin="round"/>
<path d="M217.329 124.393C217.329 124.393 217.329 121.06 220.384 121.06" stroke="#153243" stroke-width="2" stroke-linecap="round" stroke-linejoin="round"/>
<path d="M225.357 136.476L219.07 133.49C219.07 133.49 218.537 139.809 220.846 139.635C223.154 139.462 225.357 136.476 225.357 136.476Z" fill="#153243" stroke="#153243" stroke-linecap="round" stroke-linejoin="round"/>
<path d="M219.203 127.648C219.203 127.648 221.227 125.504 222.915 127.318" stroke="#153243" stroke-linecap="round" stroke-linejoin="round"/>
<path d="M219.025 135.495L224.673 137.292C224.916 137.032 225.144 136.76 225.357 136.476L219.07 133.498C219.07 133.498 218.999 134.392 219.025 135.495Z" fill="white" stroke="#153243" stroke-linecap="round" stroke-linejoin="round"/>
<path d="M183.878 122.44C183.878 122.44 179.927 114.541 174.359 115.418C168.791 116.295 164.484 122.258 166.278 130.686C166.278 130.686 167.166 132.969 167.894 134.896C167.894 134.896 160.897 132.795 157.123 137.352C153.349 141.909 156.235 146.657 160.533 148.94C164.831 151.223 167.361 151.049 167.361 151.049C167.361 151.049 157.842 153.853 161.252 157.368C164.662 160.884 175.078 158.592 172.92 155.632C170.762 152.672 169.155 153.028 169.155 153.028C169.155 153.028 177.769 149.869 176.872 147.586C175.975 145.303 171.668 143.55 171.668 143.55C171.668 143.55 179.927 146.362 184.42 143.723C188.913 141.085 184.953 129.835 184.953 129.835L183.878 122.44Z" fill="#153243" stroke="#153243" stroke-linecap="round" stroke-linejoin="round"/>
<path d="M219.967 105.939C219.967 105.939 221.405 110.852 218.892 115.062C216.379 119.272 210.989 126.476 210.27 134.549C209.55 142.621 211.886 152.629 213.324 155.962C214.763 159.295 211.548 159.998 209.195 159.825C206.842 159.651 205.963 158.245 205.963 155.086C205.963 151.926 205.243 146.31 205.243 146.31C205.243 146.31 196.088 145.442 191.781 142.968C187.475 140.494 181.188 132.092 183.878 122.44C186.569 112.788 193.753 109.976 198.086 108.222C202.42 106.469 208.325 106.642 212.454 105.766C216.583 104.889 219.789 103.83 219.967 105.939Z" fill="#153243" stroke="#153243" stroke-linecap="round" stroke-linejoin="round"/>
<path d="M206.904 130.512L205.288 136.831C205.288 136.831 201.878 135.252 201.336 132.439C200.795 129.627 204.888 128.23 207.801 130.703" fill="white"/>
<path d="M206.904 130.512L205.288 136.831C205.288 136.831 201.878 135.252 201.336 132.439C200.795 129.627 204.888 128.23 207.801 130.703" stroke="#153243" stroke-linecap="round" stroke-linejoin="round"/>
<path d="M259.296 140.512L256.961 140.694" stroke="#153243" stroke-linecap="round" stroke-linejoin="round"/>
<path d="M242.495 135.443L302.346 143.628L294.212 100.349L240.648 125.565L242.495 135.443Z" fill="#FFBA08" stroke="#153243" stroke-linecap="round" stroke-linejoin="round"/>
<path d="M240.644 125.567L231.752 127.156L233.591 136.992L242.484 135.403L240.644 125.567Z" fill="#FFBA08" stroke="#153243" stroke-linecap="round" stroke-linejoin="round"/>
<path d="M252.467 173.86C252.467 173.86 238.641 163.679 234.512 161.578C230.383 159.478 227.408 161.179 225.961 161.222C224.035 163.932 221.443 166.124 218.423 167.597C215.403 169.07 212.053 169.776 208.68 169.651C196.87 169.503 193.584 163.08 192.874 161.205C191.066 161.222 189.265 161.405 187.492 161.752C181.925 162.984 167.956 176.673 167.956 176.673L177.476 192.817L184.296 187.557C185.808 190.248 187.071 193.066 188.07 195.977C189.508 200.369 188.958 224.239 188.958 224.239L242.824 223.007L237.256 189.484L245.088 193.564L252.467 173.86Z" fill="#153243" stroke="#153243" stroke-linecap="round" stroke-linejoin="round"/>
<path d="M218.387 207.29C227.289 205.218 232.788 196.484 230.669 187.782C228.55 179.08 219.615 173.705 210.712 175.777C201.81 177.848 196.311 186.582 198.43 195.284C200.549 203.986 209.484 209.361 218.387 207.29Z" stroke="white" stroke-miterlimit="10"/>
<path d="M224.673 184.19H205.021L214.71 193.312L224.673 184.19Z" fill="#FFBA08"/>
<path d="M218.643 191.298L225.481 197.201V185.031L218.643 191.298Z" fill="#FFBA08"/>
<path d="M210.847 191.281L203.92 184.754V196.923L210.847 191.281Z" fill="#FFBA08"/>
<path d="M217.773 192.088L214.701 194.909L211.708 192.088L204.498 197.965H224.575L217.773 192.088Z" fill="#FFBA08"/>
<path d="M26.9153 402.587H417.919" stroke="#153243" stroke-miterlimit="10"/>
</g>
<defs>
<clipPath id="clip0_676_5881">
<rect width="444" height="434" fill="white"/>
</clipPath>
</defs>
</svg>
