<svg width="529" height="216" viewBox="0 0 529 216" fill="none" xmlns="http://www.w3.org/2000/svg">
<path d="M58.596 15.986L48.165 56H36.366L29.982 29.666L23.37 56H11.571L1.425 15.986H11.856L17.613 45.113L24.738 15.986H35.454L42.294 45.113L48.108 15.986H58.596ZM93.4662 39.584C93.4662 40.496 93.4092 41.446 93.2952 42.434H71.2362C71.3882 44.41 72.0152 45.93 73.1172 46.994C74.2572 48.02 75.6442 48.533 77.2782 48.533C79.7102 48.533 81.4012 47.507 82.3512 45.455H92.7252C92.1932 47.545 91.2242 49.426 89.8182 51.098C88.4502 52.77 86.7212 54.081 84.6312 55.031C82.5412 55.981 80.2042 56.456 77.6202 56.456C74.5042 56.456 71.7302 55.791 69.2982 54.461C66.8662 53.131 64.9662 51.231 63.5982 48.761C62.2302 46.291 61.5462 43.403 61.5462 40.097C61.5462 36.791 62.2112 33.903 63.5412 31.433C64.9092 28.963 66.8092 27.063 69.2412 25.733C71.6732 24.403 74.4662 23.738 77.6202 23.738C80.6982 23.738 83.4342 24.384 85.8282 25.676C88.2222 26.968 90.0842 28.811 91.4142 31.205C92.7822 33.599 93.4662 36.392 93.4662 39.584ZM83.4912 37.019C83.4912 35.347 82.9212 34.017 81.7812 33.029C80.6412 32.041 79.2162 31.547 77.5062 31.547C75.8722 31.547 74.4852 32.022 73.3452 32.972C72.2432 33.922 71.5592 35.271 71.2932 37.019H83.4912ZM135.596 48.932H120.662L118.268 56H108.065L122.543 15.986H133.829L148.307 56H137.99L135.596 48.932ZM133.088 41.408L128.129 26.759L123.227 41.408H133.088ZM162.461 29.495C163.601 27.747 165.026 26.379 166.736 25.391C168.446 24.365 170.346 23.852 172.436 23.852V34.169H169.757C167.325 34.169 165.501 34.701 164.285 35.765C163.069 36.791 162.461 38.615 162.461 41.237V56H152.714V24.194H162.461V29.495ZM207.077 39.584C207.077 40.496 207.02 41.446 206.906 42.434H184.847C184.999 44.41 185.626 45.93 186.728 46.994C187.868 48.02 189.255 48.533 190.889 48.533C193.321 48.533 195.012 47.507 195.962 45.455H206.336C205.804 47.545 204.835 49.426 203.429 51.098C202.061 52.77 200.332 54.081 198.242 55.031C196.152 55.981 193.815 56.456 191.231 56.456C188.115 56.456 185.341 55.791 182.909 54.461C180.477 53.131 178.577 51.231 177.209 48.761C175.841 46.291 175.157 43.403 175.157 40.097C175.157 36.791 175.822 33.903 177.152 31.433C178.52 28.963 180.42 27.063 182.852 25.733C185.284 24.403 188.077 23.738 191.231 23.738C194.309 23.738 197.045 24.384 199.439 25.676C201.833 26.968 203.695 28.811 205.025 31.205C206.393 33.599 207.077 36.392 207.077 39.584ZM197.102 37.019C197.102 35.347 196.532 34.017 195.392 33.029C194.252 32.041 192.827 31.547 191.117 31.547C189.483 31.547 188.096 32.022 186.956 32.972C185.854 33.922 185.17 35.271 184.904 37.019H197.102ZM249.207 48.932H234.273L231.879 56H221.676L236.154 15.986H247.44L261.918 56H251.601L249.207 48.932ZM246.699 41.408L241.74 26.759L236.838 41.408H246.699ZM276.75 35.936C276.75 31.984 277.605 28.469 279.315 25.391C281.025 22.275 283.4 19.862 286.44 18.152C289.518 16.404 292.995 15.53 296.871 15.53C301.621 15.53 305.687 16.784 309.069 19.292C312.451 21.8 314.712 25.22 315.852 29.552H305.136C304.338 27.88 303.198 26.607 301.716 25.733C300.272 24.859 298.619 24.422 296.757 24.422C293.755 24.422 291.323 25.467 289.461 27.557C287.599 29.647 286.668 32.44 286.668 35.936C286.668 39.432 287.599 42.225 289.461 44.315C291.323 46.405 293.755 47.45 296.757 47.45C298.619 47.45 300.272 47.013 301.716 46.139C303.198 45.265 304.338 43.992 305.136 42.32H315.852C314.712 46.652 312.451 50.072 309.069 52.58C305.687 55.05 301.621 56.285 296.871 56.285C292.995 56.285 289.518 55.43 286.44 53.72C283.4 51.972 281.025 49.559 279.315 46.481C277.605 43.403 276.75 39.888 276.75 35.936ZM331.568 29.495C332.708 27.747 334.133 26.379 335.843 25.391C337.553 24.365 339.453 23.852 341.543 23.852V34.169H338.864C336.432 34.169 334.608 34.701 333.392 35.765C332.176 36.791 331.568 38.615 331.568 41.237V56H321.821V24.194H331.568V29.495ZM376.184 39.584C376.184 40.496 376.127 41.446 376.013 42.434H353.954C354.106 44.41 354.733 45.93 355.835 46.994C356.975 48.02 358.362 48.533 359.996 48.533C362.428 48.533 364.119 47.507 365.069 45.455H375.443C374.911 47.545 373.942 49.426 372.536 51.098C371.168 52.77 369.439 54.081 367.349 55.031C365.259 55.981 362.922 56.456 360.338 56.456C357.222 56.456 354.448 55.791 352.016 54.461C349.584 53.131 347.684 51.231 346.316 48.761C344.948 46.291 344.264 43.403 344.264 40.097C344.264 36.791 344.929 33.903 346.259 31.433C347.627 28.963 349.527 27.063 351.959 25.733C354.391 24.403 357.184 23.738 360.338 23.738C363.416 23.738 366.152 24.384 368.546 25.676C370.94 26.968 372.802 28.811 374.132 31.205C375.5 33.599 376.184 36.392 376.184 39.584ZM366.209 37.019C366.209 35.347 365.639 34.017 364.499 33.029C363.359 32.041 361.934 31.547 360.224 31.547C358.59 31.547 357.203 32.022 356.063 32.972C354.961 33.922 354.277 35.271 354.011 37.019H366.209ZM379.388 40.04C379.388 36.772 379.996 33.903 381.212 31.433C382.466 28.963 384.157 27.063 386.285 25.733C388.413 24.403 390.788 23.738 393.41 23.738C395.652 23.738 397.609 24.194 399.281 25.106C400.991 26.018 402.302 27.215 403.214 28.697V24.194H412.961V56H403.214V51.497C402.264 52.979 400.934 54.176 399.224 55.088C397.552 56 395.595 56.456 393.353 56.456C390.769 56.456 388.413 55.791 386.285 54.461C384.157 53.093 382.466 51.174 381.212 48.704C379.996 46.196 379.388 43.308 379.388 40.04ZM403.214 40.097C403.214 37.665 402.53 35.746 401.162 34.34C399.832 32.934 398.198 32.231 396.26 32.231C394.322 32.231 392.669 32.934 391.301 34.34C389.971 35.708 389.306 37.608 389.306 40.04C389.306 42.472 389.971 44.41 391.301 45.854C392.669 47.26 394.322 47.963 396.26 47.963C398.198 47.963 399.832 47.26 401.162 45.854C402.53 44.448 403.214 42.529 403.214 40.097ZM437.74 47.735V56H432.781C429.247 56 426.492 55.145 424.516 53.435C422.54 51.687 421.552 48.856 421.552 44.942V32.288H417.676V24.194H421.552V16.442H431.299V24.194H437.683V32.288H431.299V45.056C431.299 46.006 431.527 46.69 431.983 47.108C432.439 47.526 433.199 47.735 434.263 47.735H437.74ZM448.071 20.888C446.361 20.888 444.955 20.394 443.853 19.406C442.789 18.38 442.257 17.126 442.257 15.644C442.257 14.124 442.789 12.87 443.853 11.882C444.955 10.856 446.361 10.343 448.071 10.343C449.743 10.343 451.111 10.856 452.175 11.882C453.277 12.87 453.828 14.124 453.828 15.644C453.828 17.126 453.277 18.38 452.175 19.406C451.111 20.394 449.743 20.888 448.071 20.888ZM452.916 24.194V56H443.169V24.194H452.916ZM474.286 46.88L481.183 24.194H491.557L480.271 56H468.244L456.958 24.194H467.389L474.286 46.88ZM525.642 39.584C525.642 40.496 525.585 41.446 525.471 42.434H503.412C503.564 44.41 504.191 45.93 505.293 46.994C506.433 48.02 507.82 48.533 509.454 48.533C511.886 48.533 513.577 47.507 514.527 45.455H524.901C524.369 47.545 523.4 49.426 521.994 51.098C520.626 52.77 518.897 54.081 516.807 55.031C514.717 55.981 512.38 56.456 509.796 56.456C506.68 56.456 503.906 55.791 501.474 54.461C499.042 53.131 497.142 51.231 495.774 48.761C494.406 46.291 493.722 43.403 493.722 40.097C493.722 36.791 494.387 33.903 495.717 31.433C497.085 28.963 498.985 27.063 501.417 25.733C503.849 24.403 506.642 23.738 509.796 23.738C512.874 23.738 515.61 24.384 518.004 25.676C520.398 26.968 522.26 28.811 523.59 31.205C524.958 33.599 525.642 36.392 525.642 39.584ZM515.667 37.019C515.667 35.347 515.097 34.017 513.957 33.029C512.817 32.041 511.392 31.547 509.682 31.547C508.048 31.547 506.661 32.022 505.521 32.972C504.419 33.922 503.735 35.271 503.469 37.019H515.667ZM18.525 87.986C22.743 87.986 26.429 88.822 29.583 90.494C32.737 92.166 35.169 94.522 36.879 97.562C38.627 100.564 39.501 104.041 39.501 107.993C39.501 111.907 38.627 115.384 36.879 118.424C35.169 121.464 32.718 123.82 29.526 125.492C26.372 127.164 22.705 128 18.525 128H3.534V87.986H18.525ZM17.898 119.564C21.584 119.564 24.453 118.557 26.505 116.543C28.557 114.529 29.583 111.679 29.583 107.993C29.583 104.307 28.557 101.438 26.505 99.386C24.453 97.334 21.584 96.308 17.898 96.308H13.281V119.564H17.898ZM49.8501 92.888C48.1401 92.888 46.7341 92.394 45.6321 91.406C44.5681 90.38 44.0361 89.126 44.0361 87.644C44.0361 86.124 44.5681 84.87 45.6321 83.882C46.7341 82.856 48.1401 82.343 49.8501 82.343C51.5221 82.343 52.8901 82.856 53.9541 83.882C55.0561 84.87 55.6071 86.124 55.6071 87.644C55.6071 89.126 55.0561 90.38 53.9541 91.406C52.8901 92.394 51.5221 92.888 49.8501 92.888ZM54.6951 96.194V128H44.9481V96.194H54.6951ZM73.8426 95.738C76.0846 95.738 78.0416 96.194 79.7136 97.106C81.4236 98.018 82.7346 99.215 83.6466 100.697V96.194H93.3936V127.943C93.3936 130.869 92.8046 133.51 91.6266 135.866C90.4866 138.26 88.7196 140.16 86.3256 141.566C83.9696 142.972 81.0246 143.675 77.4906 143.675C72.7786 143.675 68.9596 142.554 66.0336 140.312C63.1076 138.108 61.4356 135.106 61.0176 131.306H70.6506C70.9546 132.522 71.6766 133.472 72.8166 134.156C73.9566 134.878 75.3626 135.239 77.0346 135.239C79.0486 135.239 80.6446 134.65 81.8226 133.472C83.0386 132.332 83.6466 130.489 83.6466 127.943V123.44C82.6966 124.922 81.3856 126.138 79.7136 127.088C78.0416 128 76.0846 128.456 73.8426 128.456C71.2206 128.456 68.8456 127.791 66.7176 126.461C64.5896 125.093 62.8986 123.174 61.6446 120.704C60.4286 118.196 59.8206 115.308 59.8206 112.04C59.8206 108.772 60.4286 105.903 61.6446 103.433C62.8986 100.963 64.5896 99.063 66.7176 97.733C68.8456 96.403 71.2206 95.738 73.8426 95.738ZM83.6466 112.097C83.6466 109.665 82.9626 107.746 81.5946 106.34C80.2646 104.934 78.6306 104.231 76.6926 104.231C74.7546 104.231 73.1016 104.934 71.7336 106.34C70.4036 107.708 69.7386 109.608 69.7386 112.04C69.7386 114.472 70.4036 116.41 71.7336 117.854C73.1016 119.26 74.7546 119.963 76.6926 119.963C78.6306 119.963 80.2646 119.26 81.5946 117.854C82.9626 116.448 83.6466 114.529 83.6466 112.097ZM105.347 92.888C103.637 92.888 102.231 92.394 101.129 91.406C100.065 90.38 99.5331 89.126 99.5331 87.644C99.5331 86.124 100.065 84.87 101.129 83.882C102.231 82.856 103.637 82.343 105.347 82.343C107.019 82.343 108.387 82.856 109.451 83.882C110.553 84.87 111.104 86.124 111.104 87.644C111.104 89.126 110.553 90.38 109.451 91.406C108.387 92.394 107.019 92.888 105.347 92.888ZM110.192 96.194V128H100.445V96.194H110.192ZM134.983 119.735V128H130.024C126.49 128 123.735 127.145 121.759 125.435C119.783 123.687 118.795 120.856 118.795 116.942V104.288H114.919V96.194H118.795V88.442H128.542V96.194H134.926V104.288H128.542V117.056C128.542 118.006 128.77 118.69 129.226 119.108C129.682 119.526 130.442 119.735 131.506 119.735H134.983ZM138.474 112.04C138.474 108.772 139.082 105.903 140.298 103.433C141.552 100.963 143.243 99.063 145.371 97.733C147.499 96.403 149.874 95.738 152.496 95.738C154.738 95.738 156.695 96.194 158.367 97.106C160.077 98.018 161.388 99.215 162.3 100.697V96.194H172.047V128H162.3V123.497C161.35 124.979 160.02 126.176 158.31 127.088C156.638 128 154.681 128.456 152.439 128.456C149.855 128.456 147.499 127.791 145.371 126.461C143.243 125.093 141.552 123.174 140.298 120.704C139.082 118.196 138.474 115.308 138.474 112.04ZM162.3 112.097C162.3 109.665 161.616 107.746 160.248 106.34C158.918 104.934 157.284 104.231 155.346 104.231C153.408 104.231 151.755 104.934 150.387 106.34C149.057 107.708 148.392 109.608 148.392 112.04C148.392 114.472 149.057 116.41 150.387 117.854C151.755 119.26 153.408 119.963 155.346 119.963C157.284 119.963 158.918 119.26 160.248 117.854C161.616 116.448 162.3 114.529 162.3 112.097ZM188.845 85.82V128H179.098V85.82H188.845ZM253.303 87.986V128H243.556V104.003L234.607 128H226.741L217.735 103.946V128H207.988V87.986H219.502L230.731 115.688L241.846 87.986H253.303ZM258.374 112.04C258.374 108.772 258.982 105.903 260.198 103.433C261.452 100.963 263.143 99.063 265.271 97.733C267.399 96.403 269.774 95.738 272.396 95.738C274.638 95.738 276.595 96.194 278.267 97.106C279.977 98.018 281.288 99.215 282.2 100.697V96.194H291.947V128H282.2V123.497C281.25 124.979 279.92 126.176 278.21 127.088C276.538 128 274.581 128.456 272.339 128.456C269.755 128.456 267.399 127.791 265.271 126.461C263.143 125.093 261.452 123.174 260.198 120.704C258.982 118.196 258.374 115.308 258.374 112.04ZM282.2 112.097C282.2 109.665 281.516 107.746 280.148 106.34C278.818 104.934 277.184 104.231 275.246 104.231C273.308 104.231 271.655 104.934 270.287 106.34C268.957 107.708 268.292 109.608 268.292 112.04C268.292 114.472 268.957 116.41 270.287 117.854C271.655 119.26 273.308 119.963 275.246 119.963C277.184 119.963 278.818 119.26 280.148 117.854C281.516 116.448 282.2 114.529 282.2 112.097ZM308.746 101.495C309.886 99.747 311.311 98.379 313.021 97.391C314.731 96.365 316.631 95.852 318.721 95.852V106.169H316.042C313.61 106.169 311.786 106.701 310.57 107.765C309.354 108.791 308.746 110.615 308.746 113.237V128H298.999V96.194H308.746V101.495ZM342.817 128L333.127 114.662V128H323.38V85.82H333.127V109.133L342.76 96.194H354.787L341.563 112.154L354.901 128H342.817ZM388.597 111.584C388.597 112.496 388.54 113.446 388.426 114.434H366.367C366.519 116.41 367.146 117.93 368.248 118.994C369.388 120.02 370.775 120.533 372.409 120.533C374.841 120.533 376.532 119.507 377.482 117.455H387.856C387.324 119.545 386.355 121.426 384.949 123.098C383.581 124.77 381.852 126.081 379.762 127.031C377.672 127.981 375.335 128.456 372.751 128.456C369.635 128.456 366.861 127.791 364.429 126.461C361.997 125.131 360.097 123.231 358.729 120.761C357.361 118.291 356.677 115.403 356.677 112.097C356.677 108.791 357.342 105.903 358.672 103.433C360.04 100.963 361.94 99.063 364.372 97.733C366.804 96.403 369.597 95.738 372.751 95.738C375.829 95.738 378.565 96.384 380.959 97.676C383.353 98.968 385.215 100.811 386.545 103.205C387.913 105.599 388.597 108.392 388.597 111.584ZM378.622 109.019C378.622 107.347 378.052 106.017 376.912 105.029C375.772 104.041 374.347 103.547 372.637 103.547C371.003 103.547 369.616 104.022 368.476 104.972C367.374 105.922 366.69 107.271 366.424 109.019H378.622ZM411.466 119.735V128H406.507C402.973 128 400.218 127.145 398.242 125.435C396.266 123.687 395.278 120.856 395.278 116.942V104.288H391.402V96.194H395.278V88.442H405.025V96.194H411.409V104.288H405.025V117.056C405.025 118.006 405.253 118.69 405.709 119.108C406.165 119.526 406.925 119.735 407.989 119.735H411.466ZM421.797 92.888C420.087 92.888 418.681 92.394 417.579 91.406C416.515 90.38 415.983 89.126 415.983 87.644C415.983 86.124 416.515 84.87 417.579 83.882C418.681 82.856 420.087 82.343 421.797 82.343C423.469 82.343 424.837 82.856 425.901 83.882C427.003 84.87 427.554 86.124 427.554 87.644C427.554 89.126 427.003 90.38 425.901 91.406C424.837 92.394 423.469 92.888 421.797 92.888ZM426.642 96.194V128H416.895V96.194H426.642ZM453.086 95.852C456.81 95.852 459.774 97.068 461.978 99.5C464.22 101.894 465.341 105.2 465.341 109.418V128H455.651V110.729C455.651 108.601 455.1 106.948 453.998 105.77C452.896 104.592 451.414 104.003 449.552 104.003C447.69 104.003 446.208 104.592 445.106 105.77C444.004 106.948 443.453 108.601 443.453 110.729V128H433.706V96.194H443.453V100.412C444.441 99.006 445.771 97.904 447.443 97.106C449.115 96.27 450.996 95.852 453.086 95.852ZM484.198 95.738C486.44 95.738 488.397 96.194 490.069 97.106C491.779 98.018 493.09 99.215 494.002 100.697V96.194H503.749V127.943C503.749 130.869 503.16 133.51 501.982 135.866C500.842 138.26 499.075 140.16 496.681 141.566C494.325 142.972 491.38 143.675 487.846 143.675C483.134 143.675 479.315 142.554 476.389 140.312C473.463 138.108 471.791 135.106 471.373 131.306H481.006C481.31 132.522 482.032 133.472 483.172 134.156C484.312 134.878 485.718 135.239 487.39 135.239C489.404 135.239 491 134.65 492.178 133.472C493.394 132.332 494.002 130.489 494.002 127.943V123.44C493.052 124.922 491.741 126.138 490.069 127.088C488.397 128 486.44 128.456 484.198 128.456C481.576 128.456 479.201 127.791 477.073 126.461C474.945 125.093 473.254 123.174 472 120.704C470.784 118.196 470.176 115.308 470.176 112.04C470.176 108.772 470.784 105.903 472 103.433C473.254 100.963 474.945 99.063 477.073 97.733C479.201 96.403 481.576 95.738 484.198 95.738ZM494.002 112.097C494.002 109.665 493.318 107.746 491.95 106.34C490.62 104.934 488.986 104.231 487.048 104.231C485.11 104.231 483.457 104.934 482.089 106.34C480.759 107.708 480.094 109.608 480.094 112.04C480.094 114.472 480.759 116.41 482.089 117.854C483.457 119.26 485.11 119.963 487.048 119.963C488.986 119.963 490.62 119.26 491.95 117.854C493.318 116.448 494.002 114.529 494.002 112.097ZM28.443 192.932H13.509L11.115 200H0.912L15.39 159.986H26.676L41.154 200H30.837L28.443 192.932ZM25.935 185.408L20.976 170.759L16.074 185.408H25.935ZM57.6444 167.738C59.8864 167.738 61.8434 168.194 63.5154 169.106C65.2254 170.018 66.5364 171.215 67.4484 172.697V168.194H77.1954V199.943C77.1954 202.869 76.6064 205.51 75.4284 207.866C74.2884 210.26 72.5214 212.16 70.1274 213.566C67.7714 214.972 64.8264 215.675 61.2924 215.675C56.5804 215.675 52.7614 214.554 49.8354 212.312C46.9094 210.108 45.2374 207.106 44.8194 203.306H54.4524C54.7564 204.522 55.4784 205.472 56.6184 206.156C57.7584 206.878 59.1644 207.239 60.8364 207.239C62.8504 207.239 64.4464 206.65 65.6244 205.472C66.8404 204.332 67.4484 202.489 67.4484 199.943V195.44C66.4984 196.922 65.1874 198.138 63.5154 199.088C61.8434 200 59.8864 200.456 57.6444 200.456C55.0224 200.456 52.6474 199.791 50.5194 198.461C48.3914 197.093 46.7004 195.174 45.4464 192.704C44.2304 190.196 43.6224 187.308 43.6224 184.04C43.6224 180.772 44.2304 177.903 45.4464 175.433C46.7004 172.963 48.3914 171.063 50.5194 169.733C52.6474 168.403 55.0224 167.738 57.6444 167.738ZM67.4484 184.097C67.4484 181.665 66.7644 179.746 65.3964 178.34C64.0664 176.934 62.4324 176.231 60.4944 176.231C58.5564 176.231 56.9034 176.934 55.5354 178.34C54.2054 179.708 53.5404 181.608 53.5404 184.04C53.5404 186.472 54.2054 188.41 55.5354 189.854C56.9034 191.26 58.5564 191.963 60.4944 191.963C62.4324 191.963 64.0664 191.26 65.3964 189.854C66.7644 188.448 67.4484 186.529 67.4484 184.097ZM114.229 183.584C114.229 184.496 114.172 185.446 114.058 186.434H91.9989C92.1509 188.41 92.7779 189.93 93.8799 190.994C95.0199 192.02 96.4069 192.533 98.0409 192.533C100.473 192.533 102.164 191.507 103.114 189.455H113.488C112.956 191.545 111.987 193.426 110.581 195.098C109.213 196.77 107.484 198.081 105.394 199.031C103.304 199.981 100.967 200.456 98.3829 200.456C95.2669 200.456 92.4929 199.791 90.0609 198.461C87.6289 197.131 85.7289 195.231 84.3609 192.761C82.9929 190.291 82.3089 187.403 82.3089 184.097C82.3089 180.791 82.9739 177.903 84.3039 175.433C85.6719 172.963 87.5719 171.063 90.0039 169.733C92.4359 168.403 95.2289 167.738 98.3829 167.738C101.461 167.738 104.197 168.384 106.591 169.676C108.985 170.968 110.847 172.811 112.177 175.205C113.545 177.599 114.229 180.392 114.229 183.584ZM104.254 181.019C104.254 179.347 103.684 178.017 102.544 177.029C101.404 176.041 99.9789 175.547 98.2689 175.547C96.6349 175.547 95.2479 176.022 94.1079 176.972C93.0059 177.922 92.3219 179.271 92.0559 181.019H104.254ZM138.751 167.852C142.475 167.852 145.439 169.068 147.643 171.5C149.885 173.894 151.006 177.2 151.006 181.418V200H141.316V182.729C141.316 180.601 140.765 178.948 139.663 177.77C138.561 176.592 137.079 176.003 135.217 176.003C133.355 176.003 131.873 176.592 130.771 177.77C129.669 178.948 129.118 180.601 129.118 182.729V200H119.371V168.194H129.118V172.412C130.106 171.006 131.436 169.904 133.108 169.106C134.78 168.27 136.661 167.852 138.751 167.852ZM155.841 184.097C155.841 180.791 156.506 177.903 157.836 175.433C159.204 172.963 161.085 171.063 163.479 169.733C165.911 168.403 168.685 167.738 171.801 167.738C175.791 167.738 179.116 168.783 181.776 170.873C184.474 172.963 186.241 175.908 187.077 179.708H176.703C175.829 177.276 174.138 176.06 171.63 176.06C169.844 176.06 168.419 176.763 167.355 178.169C166.291 179.537 165.759 181.513 165.759 184.097C165.759 186.681 166.291 188.676 167.355 190.082C168.419 191.45 169.844 192.134 171.63 192.134C174.138 192.134 175.829 190.918 176.703 188.486H187.077C186.241 192.21 184.474 195.136 181.776 197.264C179.078 199.392 175.753 200.456 171.801 200.456C168.685 200.456 165.911 199.791 163.479 198.461C161.085 197.131 159.204 195.231 157.836 192.761C156.506 190.291 155.841 187.403 155.841 184.097ZM224.781 168.194L204.831 215.105H194.343L201.639 198.917L188.7 168.194H199.587L206.94 188.087L214.236 168.194H224.781Z" fill="#1C1B1F"/>
<path d="M9.35645 54.9148L205.996 54.683" stroke="#FFBA08" stroke-opacity="0.32" stroke-width="6"/>
</svg>
